<?xml version="1.0" encoding="UTF-8"?>
<svg id="Layer_1" xmlns="http://www.w3.org/2000/svg" width="164.8" height="30" version="1.1" viewBox="0 0 164.8 30">
  <!-- Generator: Adobe Illustrator 29.1.0, SVG Export Plug-In . SVG Version: 2.1.0 Build 142)  -->
  <defs>
    <style>
      .st0 {
        fill: #fff;
      }
    </style>
  </defs>
  <g>
    <path class="st0" d="M26.7,22.7c0-3.3,2-5.4,5.2-5.4s3.6,1,4.3,2.5l-2.3,1.2c-.4-.8-.9-1.4-2-1.4s-2.1.8-2.1,2.2v1.7c0,1.4.8,2.2,2.2,2.2s1.7-.6,2.2-1.4l2.2,1.3c-.7,1.5-2.1,2.5-4.4,2.5-3.3,0-5.2-2.1-5.2-5.4Z"/>
    <path class="st0" d="M38.7,25.5h3.3v-5.7h-3.3v-2.3h6.2v8h3v2.3h-9.3v-2.3ZM41.7,14.8v-.6c0-.8.5-1.4,1.8-1.4s1.8.6,1.8,1.4v.6c0,.8-.5,1.4-1.8,1.4s-1.8-.6-1.8-1.4Z"/>
    <path class="st0" d="M49.4,22.7c0-3.4,1.9-5.4,5-5.4s5,2,5,5.2v.9h-7v.2c0,1.3.9,2.2,2.4,2.2s2.1-.5,2.7-1.3l1.6,1.7c-.8,1-2.2,1.8-4.4,1.8-3.5,0-5.3-2.1-5.3-5.3ZM55.7,12.2l2.6,3.2-1.5,1.2-2.4-2.3-2.4,2.3-1.4-1.2,2.6-3.2h2.5ZM52.3,21.6v.2h4.2v-.2c0-1.3-.8-2.2-2.1-2.2s-2.1.9-2.1,2.2Z"/>
    <path class="st0" d="M61.7,27.8v-10.3h3v1.9h.1c.5-1.2,1.4-2.1,3-2.1s3.4,1.4,3.4,3.9v6.7h-3v-6.3c0-1.3-.6-2-1.7-2s-1.8.5-1.8,1.5v6.8h-3Z"/>
    <path class="st0" d="M73.2,22.7c0-3.3,2-5.4,5.2-5.4s3.6,1,4.3,2.5l-2.3,1.2c-.4-.8-.9-1.4-2-1.4s-2.1.8-2.1,2.2v1.7c0,1.4.8,2.2,2.2,2.2s1.7-.6,2.2-1.4l2.2,1.3c-.7,1.5-2.1,2.5-4.4,2.5-3.3,0-5.2-2.1-5.2-5.4Z"/>
    <path class="st0" d="M85.2,25.5h3.3v-5.7h-3.3v-2.3h6.2v8h3v2.3h-9.3v-2.3ZM88.2,14.8v-.6c0-.8.5-1.4,1.8-1.4s1.8.6,1.8,1.4v.6c0,.8-.5,1.4-1.8,1.4s-1.8-.6-1.8-1.4Z"/>
    <path class="st0" d="M105,27.8c-1.2,0-2-.7-2.1-1.8h0c-.4,1.3-1.6,2.1-3.1,2.1s-3.3-1.1-3.3-3.1,1.6-3.2,4.6-3.2h1.7v-.5c0-1.2-.5-1.9-1.9-1.9s-2,.5-2.5,1.3l-1.6-1.4c.7-1.2,2.2-2,4.5-2s4.5,1.3,4.5,3.9v4.5h1.1v2.1h-1.7ZM102.6,24.7v-1.2h-1.6c-1.2,0-1.8.4-1.8,1.2v.4c0,.7.6,1.1,1.5,1.1s1.9-.5,1.9-1.5Z"/>
    <path class="st0" d="M112.2,27.8l-3.7-10.3h1.6l1.5,4.3,1.6,4.6h0l1.6-4.6,1.5-4.3h1.6l-3.7,10.3h-2Z"/>
    <path class="st0" d="M121.2,26.5h3.7v-7.6h-3.7v-1.4h5.3v8.9h3.5v1.4h-8.8v-1.4ZM124.4,14.3v-.3c0-.6.3-1,1.3-1s1.3.4,1.3,1v.3c0,.6-.3,1-1.3,1s-1.3-.4-1.3-1Z"/>
    <path class="st0" d="M136.7,27.8c-1.6,0-2.3-1-2.3-2.4v-6.6h-3.4v-1.4h2.6c.7,0,.9-.2.9-.9v-2.7h1.5v3.6h4.7v1.4h-4.7v7.6h4.7v1.4h-4Z"/>
    <path class="st0" d="M152.1,27.8c-1.2,0-1.7-.7-1.8-1.7h0c-.4,1.2-1.4,1.9-3.1,1.9s-3.5-1.2-3.5-3.1,1.3-3,4.4-3h2.2v-1c0-1.5-.9-2.3-2.5-2.3s-2.2.6-2.8,1.5l-1.1-.8c.5-1.1,1.8-2.1,3.9-2.1s4,1.3,4,3.5v5.7h1.4v1.4h-1.1ZM150.1,24.8v-1.7h-2.2c-1.9,0-2.8.6-2.8,1.6v.4c0,1.1.8,1.6,2.1,1.6s2.8-.8,2.8-1.9Z"/>
    <path class="st0" d="M155.5,22.7c0-3.3,1.9-5.4,4.7-5.4s4.6,2.1,4.6,5v.8h-7.6v.5c0,1.8,1.2,3.1,3.2,3.1s2.4-.7,3-1.8l1.2.8c-.6,1.4-2.1,2.4-4.1,2.4-3,0-4.8-2.1-4.8-5.4ZM157.2,21.8h0c0,.1,5.9.1,5.9.1v-.2c0-1.8-1.2-3.1-2.9-3.1s-3.1,1.3-3.1,3.1Z"/>
  </g>
  <path class="st0" d="M27.4,3.6c0,0-.2-.2-.2-.2,0,0,0,0,0,0,0,0-.1,0-.2-.1,0,0,0,0-.1,0,0,0-.1,0-.2,0,0,0,0,0-.1,0,0,0-.1,0-.2,0,0,0-.1,0-.2,0,0,0-.1,0-.2,0,0,0-.1,0-.2,0,0,0-.2,0-.2,0,0,0-.1,0-.2,0,0,0-.2,0-.3,0,0,0-.1,0-.2,0,0,0-.2,0-.3,0,0,0-.1,0-.2,0-.1,0-.2,0-.3.1,0,0,0,0-.1,0-.2,0-.3.1-.5.2,0,0,0,0,0,0-.1,0-.3.1-.4.2,0,0-.1,0-.2,0-.1,0-.2.1-.3.2,0,0-.1,0-.2.1,0,0-.2.1-.3.2,0,0-.1,0-.2.1,0,0-.2.1-.3.2,0,0-.1.1-.2.2,0,0,0,0-.1.1h0c-.8.7-1.8,1.1-2.7.9-1.3-.3-2.2-1.5-2.6-3.1-.1-.4-.2-.7-.4-1.1,0,0,0,0,0,0,0-.1-.1-.2-.2-.3,0,0,0,0,0-.1,0,0-.1-.2-.2-.2,0,0,0,0-.1-.1,0,0-.1-.1-.2-.2,0,0,0,0-.1-.1,0,0-.1-.1-.2-.2,0,0,0,0-.1,0,0,0-.2,0-.3-.1,0,0,0,0-.1,0-.1,0-.3,0-.4-.1-.1,0-.3,0-.4,0-1.9,0-3.9,2.1-4.5,5,0,.2,0,.4,0,.5,0,0,0,.1,0,.2,0,.1,0,.2,0,.3,0,0,0,.2,0,.2,0,0,0,.2,0,.3,0,0,0,.2,0,.2,0,0,0,0,0,0,0,.7-.2,1.4-.6,1.7-.7.5-1.7.4-2.9-.1-.2,0-.3-.1-.5-.2,0,0,0,0,0,0-.1,0-.3,0-.4-.1,0,0,0,0-.1,0-.1,0-.3,0-.4,0,0,0,0,0,0,0-.3,0-.6,0-.9,0,0,0,0,0-.1,0-.1,0-.2,0-.3,0,0,0,0,0-.1,0,0,0-.2,0-.3.1,0,0,0,0-.1,0-.1,0-.2.1-.3.2,0,0,0,0,0,0-.4.3-.7.7-.8,1.2-.2.5-.2,1-.2,1.5,0,1.1.5,2.3,1.4,3.4,0,0,0,0,0,0,.1.1.2.3.3.4,0,0,0,0,.1.1,0,0,.2.2.3.2,0,0,.1,0,.2.1,0,0,.2.1.2.2,0,0,.1,0,.2.1,0,0,.2.1.2.2,0,0,0,0,0,0h0c.8.5,1.3,1.2,1.3,2,0,.7-.5,1.3-1.2,1.8h0s0,0,0,0c-.1,0-.2.1-.3.2,0,0,0,0,0,0-.1,0-.2.2-.3.3,0,0,0,0,0,0,0,0-.2.2-.3.3,0,0,0,0,0,0,0,0-.1.2-.2.3,0,0,0,0,0,0,0,.1-.1.2-.2.4,0,0,0,0,0,0,0,.1,0,.2-.1.3,0,0,0,0,0,.1,0,0,0,.2,0,.3,0,0,0,0,0,.1,0,.1,0,.3,0,.4,0,0,0,0,0,0,0,.4.1.7.2,1,.1.3.3.6.6.9.8.9,2.1,1.4,3.6,1.3.1,0,.3,0,.4,0,0,0,.1,0,.2,0,0,0,.1,0,.2,0,0,0,.1,0,.2,0,0,0,.1,0,.2,0,0,0,.1,0,.2,0,0,0,0,0,0,0,.9-.4,1.8-.4,2.6,0,.7.4,1.2,1.1,1.4,2.1h0s0,0,0,0c0,0,0,.1,0,.2,0,0,0,0,0,0,0,0,0,.1,0,.2,0,0,0,0,0,0,0,0,0,.1.1.2,0,0,0,0,0,0,0,0,.1.2.2.2,0,0,0,0,0,0,.5.6,1.2.9,2,.9.7,0,1.4-.2,2-.6,0,0,.2-.1.3-.2,0,0,.2-.2.3-.3,0,0,0,0,0,0,0,0,.1-.1.2-.2,0,0,0,0,0,0,0,0,.1-.2.2-.2,0,0,0,0,0,0,0-.1.1-.2.2-.3,1-2,2.6-3.3,4.2-2.9,0,0,0,0,0,0h0s0,0,0,0c0,0,0,0,.1,0,0,0,.2,0,.3,0,0,0,0,0,.1,0,.1,0,.2,0,.4,0,0,0,0,0,.1,0,.1,0,.2,0,.3,0,0,0,0,0,0,0,.1,0,.2-.1.4-.2,0,0,0,0,0,0,.1,0,.2-.2.3-.3,0,0,0,0,0,0,0,0,0,0,0,0,.1-.1.2-.2.3-.3,0,0,0,0,0-.1,0,0,.1-.2.1-.2,0,0,0-.1,0-.2,0,0,0-.1,0-.2,0,0,0-.1,0-.2,0,0,0-.1,0-.2,0,0,0-.1,0-.2,0,0,0-.1,0-.2,0,0,0-.2,0-.2,0,0,0,0,0-.1,0-.4-.2-.7-.5-1-.6-.6-1.5-.8-2.3-.5h0s0,0,0,0c0,0,0,0,0,0,0,0,0,0-.1,0-.1,0-.2.1-.3.2,0,0,0,0,0,0-.1,0-.2.2-.3.3,0,0,0,0,0,0,0,0,0,0,0,0-.1.1-.2.2-.3.3,0,0,0,0,0,.1,0,0,0,.1-.1.2,0,0,0,.1,0,.2,0,0,0,.1,0,.2,0,0,0,.1,0,.2,0,0,0,0,0,0-.2,1.1-.7,2-1.5,2.3-.6.2-1.3,0-2.1-.3h0c0,0-.2,0-.3-.1,0,0,0,0,0,0,0,0-.2,0-.3,0,0,0,0,0,0,0,0,0-.2,0-.2,0,0,0,0,0,0,0,0,0-.2,0-.2,0,0,0,0,0,0,0,0,0-.2,0-.3,0,0,0,0,0,0,0,0,0-.2,0-.3,0,0,0,0,0,0,0,0,0-.2,0-.3,0,0,0,0,0,0,0-.1,0-.2,0-.3,0h0s0,0,0,0c0,0,0,0,0,0-.8.3-1.7.3-2.4,0-.8-.4-1.2-1.2-1.5-2.1h0s0,0,0,0c0,0,0-.1,0-.2,0,0,0,0,0-.1,0,0,0-.1,0-.2,0,0,0,0,0,0,0,0,0-.1-.1-.2,0,0,0,0,0,0,0,0,0-.1-.1-.2,0,0,0,0,0,0,0,0-.1-.1-.2-.2,0,0,0,0,0,0,0,0-.1-.1-.2-.2,0,0,0,0,0,0-.2-.2-.4-.3-.6-.4-.9-.5-1.5-1.2-1.5-2.1,0-.6.3-1.1.9-1.5h0s0,0,0,0c0,0,.2-.2.3-.3,0,0,0,0,0,0,0,0,.1-.2.2-.3,0,0,0,0,0,0,0-.1.1-.2.2-.3,0,0,0,0,0,0,.1-.3.2-.6.2-.9,0,0,0,0,0,0,0-.1,0-.3,0-.4,0,0,0,0,0,0,0-.1,0-.3,0-.4,0,0,0,0,0,0,0-.2,0-.4-.1-.5-.2-.7,0-1.3.3-1.6.4-.3,1-.3,1.7,0,0,0,0,0,0,0,0,0,0,0,.1,0,0,0,0,0,.1,0,0,0,0,0,.1,0,.1,0,.2,0,.3,0,.1,0,.2,0,.4,0,0,0,0,0,.1,0,0,0,.2,0,.2,0,0,0,0,0,.1,0,0,0,.2,0,.2,0,0,0,0,0,.1,0,0,0,.2,0,.3,0,0,0,0,0,0,0,.1,0,.2,0,.3-.2,0,0,0,0,.1,0,0,0,.2,0,.2-.1,0,0,0,0,.1,0,0,0,0,0,.1,0,.8-.7,1.7-.9,2.4-.7.7.2,1.2.9,1.4,1.7h0s0,0,0,0c0,0,0,.2.1.3,0,0,0,0,0,.1,0,.1.1.2.2.3,0,0,0,0,0,0,1.2,1.3,4.1.5,6.7-1.7.2-.1.3-.3.4-.4.2-.2.3-.3.5-.5,0,0,0,0,0,0,.5-.5,1-1.1,1.3-1.7.2-.3.4-.6.5-.8.9-1.6,1-3.2.2-4Z"/>
  <path class="st0" d="M152.8,3.9h1.9v.8h-1.9v3.7h1.9v.8h-4.5v-.8h1.6v-3.7h-1.6v-.8h1.2c.2,0,.3-.2.3-.3v-.5c0-.2,0-.4.2-.6l.9-.9c.2-.1.4-.2.6-.2h1.2v.8h-1.9v1.7ZM157.4,1.3h2v.8h-2.8v4h2.8v.8h-2c-.2,0-.4,0-.6-.2l-.9-.9c-.2-.1-.2-.4-.2-.6v-2.3c0-.2,0-.4.2-.6l.9-.9c.2-.1.4-.2.6-.2ZM161.8,5.4v-3.2h-1.6v-.8h1.2c.2,0,.3-.2.3-.3V0h.9v1.3h2v.8h-2v4h2v.8h-1.4c-.2,0-.5,0-.6-.3l-.7-.8c-.1-.1-.2-.3-.2-.5ZM155.7,8.4v.8h9.1v-.8h-9.1Z"/>
</svg>