<?xml version="1.0" encoding="UTF-8" standalone="no"?>
<!-- Created with Inkscape (http://www.inkscape.org/) -->

<svg
   width="129.67374mm"
   height="105.83334mm"
   viewBox="0 0 129.67374 105.83333"
   version="1.1"
   id="svg5"
   xml:space="preserve"
   inkscape:version="1.2.2 (b0a84865, 2022-12-01)"
   sodipodi:docname="ecoevorxiv_small.svg"
   xmlns:inkscape="http://www.inkscape.org/namespaces/inkscape"
   xmlns:sodipodi="http://sodipodi.sourceforge.net/DTD/sodipodi-0.dtd"
   xmlns="http://www.w3.org/2000/svg"
   xmlns:svg="http://www.w3.org/2000/svg"><sodipodi:namedview
     id="namedview7"
     pagecolor="#505050"
     bordercolor="#eeeeee"
     borderopacity="1"
     inkscape:showpageshadow="0"
     inkscape:pageopacity="0"
     inkscape:pagecheckerboard="0"
     inkscape:deskcolor="#505050"
     inkscape:document-units="mm"
     showgrid="false"
     inkscape:zoom="0.59780184"
     inkscape:cx="-130.47802"
     inkscape:cy="241.71889"
     inkscape:window-width="2048"
     inkscape:window-height="1099"
     inkscape:window-x="0"
     inkscape:window-y="25"
     inkscape:window-maximized="0"
     inkscape:current-layer="layer1" /><defs
     id="defs2" /><g
     inkscape:label="Layer 1"
     inkscape:groupmode="layer"
     id="layer1"
     transform="translate(153.48691,-70.350156)"><path
       id="path402"
       style="fill:#000000;stroke-width:0.352778"
       d="m -153.48691,70.350156 v 4.586283 h 129.673737 v -4.586283 z m 0.57051,14.111283 v 3.175 3.175 h 5.11545 5.11493 v 33.866671 33.86666 h -5.11493 -5.11545 v 3.175 3.175 h 31.57378 31.573267 v -10.05416 -10.05417 h -3.704167 -3.704167 v 5.54126 5.54127 l -1.30638,1.3379 -1.30638,1.3379 h -14.744833 -14.74484 v -15.69878 -15.69878 h 9.50691 9.50692 l 0.89968,1.17977 c 0.73944,0.96945 0.90021,1.56738 0.90021,3.35173 v 2.17145 h 3.70416 3.70417 v -9.87795 -9.87744 h -3.70417 -3.70416 v 2.36162 c 0,2.08258 -0.11243,2.47931 -0.94827,3.35173 l -0.94774,0.98909 h -9.45886 -9.45885 V 105.80432 90.811439 h 13.75317 13.75368 l 1.2299,1.322917 1.229896,1.322917 0.0098,4.85035 0.0093,4.850867 h 3.8809 3.880383 v -9.348784 -9.348267 h -30.691669 z m 110.772563,1.104842 c -6.601516,-0.01936 -13.308515,3.558287 -15.215092,10.433989 -2.632605,9.49399 1.399964,18.62017 9.192721,20.8039 14.163376,3.96889 25.33211,-8.71574 19.88044,-22.578986 -2.290353,-5.824226 -8.0332,-8.641815 -13.858069,-8.658903 z m -28.996679,0.283187 c -3.373508,-0.0572 -7.097938,0.355058 -8.812899,1.149284 -11.881821,5.502661 -10.763381,25.703108 1.649512,29.794048 6.261002,2.06345 17.074455,-1.49937 15.187186,-5.00383 -0.765476,-1.4214 -0.975392,-1.46738 -2.321305,-0.50901 -8.2782,5.89459 -17.146346,-1.65955 -15.53962,-13.236921 0.868721,-6.259628 3.0301,-8.466666 8.290967,-8.466666 h 3.202388 l 0.102836,2.7342 0.102837,2.7342 h 2.818949 2.818949 l -0.09974,-3.955314 -0.09974,-3.954798 -2.116666,-0.65629 c -1.261849,-0.391368 -3.159559,-0.594585 -5.183663,-0.628903 z m 28.309383,2.94194 c 3.686475,-0.07512 7.42542,2.87696 8.476485,8.912634 1.204981,6.919518 -0.786951,14.105418 -4.383195,15.811958 -7.407018,3.51484 -13.772784,-4.52211 -12.255583,-15.472961 0.841564,-6.074235 4.475818,-9.176513 8.162293,-9.251631 z m 3.509346,44.752302 c -6.601516,-0.0194 -13.308517,3.55881 -15.215092,10.43451 -2.632606,9.494 1.399964,18.62018 9.192721,20.8039 14.163376,3.96889 25.33211,-8.71575 19.88044,-22.57899 -2.290353,-5.82422 -8.0332,-8.64233 -13.858069,-8.65942 z m -51.858333,0.6594 v 1.41076 1.41129 h 1.551327 1.551843 l 5.189864,12.96458 c 2.854362,7.1305 5.329306,13.32764 5.499923,13.77125 0.297507,0.77356 0.449599,0.80227 3.714502,0.70539 l 3.404443,-0.10077 4.968172,-13.67049 4.968172,-13.66996 h 1.685686 1.685168 v -1.41129 -1.41076 h -5.6441 -5.644617 v 1.39268 1.39268 l 1.709457,0.10645 1.709456,0.10645 -2.961576,8.29045 c -1.628822,4.55966 -3.41092,9.95733 -3.960482,11.99462 -0.87082,3.22821 -1.031138,3.56818 -1.249019,2.64583 -0.94933,-4.01876 -1.930917,-6.99568 -4.749581,-14.4079 -1.759089,-4.62587 -3.198255,-8.47574 -3.198255,-8.55504 0,-0.0793 0.79358,-0.14417 1.763717,-0.14417 h 1.764233 v -1.41129 -1.41076 h -6.879166 z m 51.171037,2.56573 c 3.686475,-0.0751 7.425419,2.87749 8.476485,8.91315 1.204981,6.91953 -0.786951,14.1049 -4.383195,15.81144 -7.407018,3.51486 -13.772784,-4.52159 -12.255583,-15.47244 0.841562,-6.07423 4.475818,-9.17703 8.162293,-9.25215 z m -113.477827,34.82837 v 4.58628 h 129.673737 v -4.58628 z" /></g></svg>
