<?xml version="1.0" encoding="UTF-8" standalone="no"?>
<!-- Created with Inkscape (http://www.inkscape.org/) -->

<svg
   width="43.349331mm"
   height="43.349331mm"
   viewBox="0 0 43.349331 43.349331"
   version="1.1"
   id="svg1"
   xml:space="preserve"
   sodipodi:docname="or.svg"
   inkscape:version="1.4 (e7c3feb1, 2024-10-09)"
   xmlns:inkscape="http://www.inkscape.org/namespaces/inkscape"
   xmlns:sodipodi="http://sodipodi.sourceforge.net/DTD/sodipodi-0.dtd"
   xmlns="http://www.w3.org/2000/svg"
   xmlns:svg="http://www.w3.org/2000/svg"><sodipodi:namedview
     id="namedview1"
     pagecolor="#ffffff"
     bordercolor="#000000"
     borderopacity="0.25"
     inkscape:showpageshadow="2"
     inkscape:pageopacity="0.0"
     inkscape:pagecheckerboard="0"
     inkscape:deskcolor="#d1d1d1"
     inkscape:document-units="mm"
     inkscape:zoom="6.1584476"
     inkscape:cx="81.919995"
     inkscape:cy="81.838806"
     inkscape:window-width="1432"
     inkscape:window-height="1325"
     inkscape:window-x="0"
     inkscape:window-y="87"
     inkscape:window-maximized="0"
     inkscape:current-layer="svg1" /><defs
     id="defs1" /><g
     id="layer1"
     transform="matrix(1.1983851,0,0,1.193246,-88.906153,-199.25626)"
     style="display:inline"><path
       d="m 83.371653,173.72193 q 0,0.73033 -0.181501,1.33101 -0.1815,0.59636 -0.553145,1.02851 -0.367324,0.43214 -0.933434,0.6655 -0.56611,0.22904 -1.339649,0.22904 -0.77354,0 -1.33965,-0.22904 -0.56611,-0.23336 -0.937754,-0.6655 -0.367324,-0.43215 -0.548825,-1.03283 -0.181501,-0.60068 -0.181501,-1.33533 0,-0.98097 0.319788,-1.70697 0.324109,-0.73033 0.993933,-1.13222 0.669825,-0.4019 1.702652,-0.4019 1.028505,0 1.689687,0.4019 0.665503,0.40189 0.985291,1.13222 0.324108,0.73032 0.324108,1.71561 z m -4.610987,0 q 0,0.66119 0.164215,1.14087 0.168536,0.47536 0.522895,0.73464 0.354359,0.25497 0.916148,0.25497 0.570431,0 0.92479,-0.25497 0.354359,-0.25928 0.514253,-0.73464 0.164215,-0.47968 0.164215,-1.14087 0,-0.99393 -0.371645,-1.56436 -0.371644,-0.57043 -1.22297,-0.57043 -0.56611,0 -0.924791,0.25928 -0.354359,0.25497 -0.522895,0.73465 -0.164215,0.47536 -0.164215,1.14086 z m 8.316545,-1.75451 q 0.816754,0 1.318042,0.63526 0.50561,0.63525 0.50561,1.86254 0,0.82108 -0.23768,1.38287 -0.237679,0.55746 -0.65686,0.84268 -0.419181,0.28522 -0.963684,0.28522 -0.350037,0 -0.600681,-0.0864 -0.250644,-0.0907 -0.427824,-0.22904 -0.177179,-0.14261 -0.306823,-0.3025 h -0.06914 q 0.03457,0.17286 0.05186,0.35436 0.01729,0.1815 0.01729,0.35436 v 1.94897 h -1.318042 v -6.95753 h 1.07172 l 0.185822,0.62661 h 0.0605 q 0.129644,-0.19447 0.315466,-0.35868 0.185823,-0.16422 0.44511,-0.25929 0.263608,-0.0994 0.609324,-0.0994 z m -0.423502,1.05444 q -0.345716,0 -0.548824,0.14261 -0.203108,0.1426 -0.29818,0.42782 -0.09075,0.28522 -0.09939,0.72168 v 0.14261 q 0,0.46672 0.08643,0.79083 0.09075,0.3241 0.29818,0.49264 0.211751,0.16854 0.579075,0.16854 0.302501,0 0.496967,-0.16854 0.194465,-0.16854 0.289537,-0.49264 0.09939,-0.32843 0.09939,-0.79947 0,-0.70872 -0.220394,-1.0674 -0.220394,-0.35868 -0.682789,-0.35868 z m 5.140279,-1.05444 q 0.669825,0 1.153828,0.25929 0.484002,0.25497 0.747611,0.74329 0.263608,0.48833 0.263608,1.19272 v 0.63958 h -3.115766 q 0.02161,0.55746 0.332752,0.87725 0.315466,0.31547 0.872933,0.31547 0.462395,0 0.847004,-0.0951 0.384609,-0.0951 0.790826,-0.28521 v 1.01986 q -0.358681,0.17718 -0.751933,0.25929 -0.38893,0.0821 -0.946397,0.0821 -0.726004,0 -1.287792,-0.26793 -0.557468,-0.26793 -0.877255,-0.81676 -0.315466,-0.54882 -0.315466,-1.38286 0,-0.84701 0.285216,-1.4088 0.289537,-0.56611 0.80379,-0.847 0.514252,-0.28522 1.197041,-0.28522 z m 0.0086,0.93776 q -0.384609,0 -0.639574,0.24632 -0.250644,0.24632 -0.289537,0.77354 h 1.84958 q -0.0043,-0.29386 -0.108036,-0.52289 -0.09939,-0.22904 -0.302502,-0.36301 -0.198786,-0.13396 -0.509931,-0.13396 z m 5.784175,-0.93776 q 0.773539,0 1.244577,0.42351 0.471039,0.41918 0.471039,1.34829 v 3.15034 h -1.318043 v -2.82191 q 0,-0.51857 -0.190144,-0.78218 -0.185822,-0.26361 -0.587717,-0.26361 -0.605003,0 -0.825397,0.41054 -0.220394,0.41053 -0.220394,1.18407 v 2.27309 h -1.318042 v -4.83138 h 1.006898 l 0.177179,0.61796 h 0.07346 q 0.155572,-0.25064 0.384609,-0.40621 0.233358,-0.15558 0.514253,-0.22904 0.285215,-0.0735 0.587717,-0.0735 z"
       id="text26"
       style="font-weight:bold;font-size:8.85033px;line-height:1.2;font-family:'Open Sans';-inkscape-font-specification:'Open Sans Bold';letter-spacing:-0.188069px;stroke-width:0.221258"
       transform="matrix(0.99785352,0,0,1.0021511,-1.0083013e-6,-8.9042825e-7)"
       aria-label="Open" /><path
       d="m 77.347552,197.52518 q 0,-0.40622 0.220393,-0.57044 0.224716,-0.16421 0.540182,-0.16421 0.306823,0 0.527217,0.16421 0.224715,0.16422 0.224715,0.57044 0,0.38893 -0.224715,0.56178 -0.220394,0.17286 -0.527217,0.17286 -0.315466,0 -0.540182,-0.17286 -0.220393,-0.17285 -0.220393,-0.56178 z m 5.265601,-4.30417 q 0.773539,0 1.244577,0.4235 0.471039,0.41918 0.471039,1.3483 v 3.15033 h -1.318043 v -2.8219 q 0,-0.51858 -0.190144,-0.78219 -0.185822,-0.26361 -0.587717,-0.26361 -0.605003,0 -0.825397,0.41054 -0.220394,0.41054 -0.220394,1.18408 v 2.27308 h -1.318042 v -4.83138 h 1.006898 l 0.177179,0.61797 h 0.07346 q 0.155572,-0.25065 0.384609,-0.40622 0.233358,-0.15557 0.514252,-0.22903 0.285216,-0.0735 0.587718,-0.0735 z m 4.876671,0 q 0.669824,0 1.153827,0.25929 0.484002,0.25496 0.747611,0.74329 0.263608,0.48832 0.263608,1.19272 v 0.63957 h -3.115766 q 0.02161,0.55747 0.332752,0.87726 0.315466,0.31546 0.872933,0.31546 0.462395,0 0.847004,-0.0951 0.384609,-0.0951 0.790826,-0.28522 v 1.01987 q -0.358681,0.17718 -0.751933,0.25928 -0.38893,0.0821 -0.946397,0.0821 -0.726004,0 -1.287792,-0.26793 -0.557467,-0.26793 -0.877255,-0.81675 -0.315466,-0.54883 -0.315466,-1.38287 0,-0.847 0.285216,-1.40879 0.289537,-0.56611 0.80379,-0.847 0.514252,-0.28522 1.197042,-0.28522 z m 0.0086,0.93776 q -0.384609,0 -0.639574,0.24632 -0.250644,0.24632 -0.289537,0.77354 h 1.84958 q -0.0043,-0.29386 -0.108036,-0.5229 -0.09939,-0.22903 -0.302501,-0.363 -0.198787,-0.13396 -0.509932,-0.13396 z m 5.075458,3.02069 q 0.216073,0 0.419181,-0.0432 0.207429,-0.0432 0.410537,-0.10803 v 0.98097 q -0.211751,0.0951 -0.527216,0.15557 -0.311145,0.0648 -0.68279,0.0648 -0.432145,0 -0.777861,-0.13828 -0.341394,-0.14261 -0.540181,-0.48833 -0.194465,-0.35004 -0.194465,-0.97232 v -2.32927 h -0.630932 v -0.55746 l 0.726004,-0.44079 0.380287,-1.01986 h 0.842683 v 1.0285 h 1.352614 v 0.98961 h -1.352614 v 2.32927 q 0,0.27657 0.155572,0.41485 0.159894,0.13397 0.419181,0.13397 z"
       id="text30"
       style="font-weight:bold;font-size:8.85033px;line-height:1.2;font-family:'Open Sans';-inkscape-font-specification:'Open Sans Bold';letter-spacing:-0.188069px;stroke-width:0.221258"
       transform="scale(0.99785352,1.0021511)"
       aria-label=".net" /><path
       d="m 79.478027,181.20958 q 0.859968,0 1.417435,0.20743 0.561789,0.20743 0.83404,0.62661 0.272252,0.41918 0.272252,1.05876 0,0.43214 -0.164216,0.75625 -0.164215,0.32411 -0.432145,0.54882 -0.26793,0.22472 -0.579074,0.36733 l 1.858224,2.75276 h -1.486579 l -1.508186,-2.42433 h -0.71304 v 2.42433 h -1.339649 v -6.31796 z m -0.09507,1.09765 h -0.406217 v 1.70697 h 0.432145 q 0.665504,0 0.950719,-0.22039 0.289538,-0.22472 0.289538,-0.65686 0,-0.44943 -0.311145,-0.63958 -0.306823,-0.19014 -0.95504,-0.19014 z m 5.797139,0.29818 q 0.669825,0 1.153828,0.25929 0.484002,0.25496 0.747611,0.74329 0.263608,0.48832 0.263608,1.19272 v 0.63957 h -3.115766 q 0.02161,0.55747 0.332752,0.87726 0.315466,0.31546 0.872933,0.31546 0.462395,0 0.847004,-0.0951 0.384609,-0.0951 0.790826,-0.28522 v 1.01987 q -0.358681,0.17718 -0.751933,0.25928 -0.38893,0.0821 -0.946397,0.0821 -0.726004,0 -1.287792,-0.26793 -0.557468,-0.26793 -0.877255,-0.81675 -0.315466,-0.54883 -0.315466,-1.38287 0,-0.847 0.285216,-1.40879 0.289537,-0.56611 0.80379,-0.847 0.514252,-0.28522 1.197041,-0.28522 z m 0.0086,0.93775 q -0.384609,0 -0.639574,0.24633 -0.250644,0.24632 -0.289537,0.77354 h 1.84958 q -0.0043,-0.29386 -0.108036,-0.5229 -0.09939,-0.22904 -0.302501,-0.363 -0.198787,-0.13397 -0.509932,-0.13397 z m 4.18956,3.98438 -1.840938,-4.83138 h 1.378543 l 0.933433,2.75276 q 0.07779,0.24201 0.121001,0.50994 0.04754,0.26793 0.06482,0.47968 h 0.03457 q 0.01297,-0.22904 0.0605,-0.48833 0.05186,-0.25928 0.133965,-0.50129 l 0.929112,-2.75276 h 1.378543 l -1.840938,4.83138 z m 5.014958,-4.83138 v 4.83138 h -1.318042 v -4.83138 z m -0.656861,-1.89279 q 0.293859,0 0.50561,0.13828 0.211751,0.13397 0.211751,0.50561 0,0.36732 -0.211751,0.50993 -0.211751,0.13829 -0.50561,0.13829 -0.29818,0 -0.509931,-0.13829 -0.207429,-0.14261 -0.207429,-0.50993 0,-0.37164 0.207429,-0.50561 0.211751,-0.13828 0.509931,-0.13828 z m 3.843845,1.80204 q 0.669824,0 1.153827,0.25929 0.484002,0.25496 0.747611,0.74329 0.263608,0.48832 0.263608,1.19272 v 0.63957 h -3.115766 q 0.02161,0.55747 0.332752,0.87726 0.315466,0.31546 0.872933,0.31546 0.462395,0 0.847004,-0.0951 0.384609,-0.0951 0.790826,-0.28522 v 1.01987 q -0.358681,0.17718 -0.751933,0.25928 -0.38893,0.0821 -0.946397,0.0821 -0.726004,0 -1.287792,-0.26793 -0.557467,-0.26793 -0.877255,-0.81675 -0.315466,-0.54883 -0.315466,-1.38287 0,-0.847 0.285216,-1.40879 0.289537,-0.56611 0.80379,-0.847 0.514252,-0.28522 1.197042,-0.28522 z m 0.0086,0.93775 q -0.384609,0 -0.639574,0.24633 -0.250644,0.24632 -0.289537,0.77354 h 1.84958 q -0.0043,-0.29386 -0.108036,-0.5229 -0.09939,-0.22904 -0.302501,-0.363 -0.198787,-0.13397 -0.509932,-0.13397 z m 7.011469,3.98438 -0.37165,-1.68968 q -0.0303,-0.15126 -0.0994,-0.44511 -0.0691,-0.29818 -0.15125,-0.63526 -0.0778,-0.34139 -0.14693,-0.63093 -0.0648,-0.28954 -0.0951,-0.4235 h -0.0389 q -0.0302,0.13396 -0.0951,0.4235 -0.0648,0.28954 -0.14693,0.63093 -0.0778,0.3414 -0.14692,0.6439 -0.0691,0.29818 -0.10372,0.45375 l -0.38893,1.6724 h -1.41744 l -1.37422,-4.83138 h 1.31372 l 0.55747,2.13912 q 0.0562,0.22471 0.10804,0.53586 0.0519,0.30682 0.0907,0.59636 0.0432,0.28521 0.0648,0.45375 h 0.0346 q 0.009,-0.12532 0.0346,-0.33275 0.0303,-0.20743 0.0648,-0.42782 0.0389,-0.22472 0.0692,-0.4019 0.0346,-0.1815 0.0519,-0.24632 l 0.59637,-2.3163 h 1.452 l 0.56611,2.3163 q 0.0302,0.12532 0.0778,0.39757 0.0519,0.27225 0.0907,0.56179 0.0389,0.28522 0.0432,0.44943 h 0.0346 q 0.0173,-0.14693 0.0605,-0.43647 0.0432,-0.28953 0.0994,-0.605 0.0605,-0.31979 0.121,-0.5445 l 0.57907,-2.13912 h 1.29212 l -1.39151,4.83138 z"
       id="text27"
       style="font-weight:bold;font-size:8.85033px;line-height:1.2;font-family:'Open Sans';-inkscape-font-specification:'Open Sans Bold';letter-spacing:-0.188069px;stroke-width:0.221258"
       transform="scale(0.99785352,1.0021511)"
       aria-label="Review" /></g></svg>
