<?xml version="1.0" encoding="UTF-8" standalone="no"?>
<!-- Created with Inkscape (http://www.inkscape.org/) -->

<svg
   version="1.1"
   id="svg1"
   width="582.56506"
   height="319.76379"
   viewBox="0 0 582.56506 319.76379"
   sodipodi:docname="gc2_cut_upscayl_4x_realesrgan-x4plus.svg"
   inkscape:version="1.3 (0e150ed6c4, 2023-07-21)"
   inkscape:export-filename="gc2_cut_upscayl_4x_realesrgan-x4plus.svg"
   inkscape:export-xdpi="96"
   inkscape:export-ydpi="96"
   xmlns:inkscape="http://www.inkscape.org/namespaces/inkscape"
   xmlns:sodipodi="http://sodipodi.sourceforge.net/DTD/sodipodi-0.dtd"
   xmlns="http://www.w3.org/2000/svg"
   xmlns:svg="http://www.w3.org/2000/svg">
  <defs
     id="defs1" />
  <sodipodi:namedview
     id="namedview1"
     pagecolor="#ffffff"
     bordercolor="#000000"
     borderopacity="0.25"
     inkscape:showpageshadow="2"
     inkscape:pageopacity="0.0"
     inkscape:pagecheckerboard="0"
     inkscape:deskcolor="#d1d1d1"
     showgrid="false"
     inkscape:zoom="2.108821"
     inkscape:cx="246.82038"
     inkscape:cy="226.66694"
     inkscape:window-width="2316"
     inkscape:window-height="1368"
     inkscape:window-x="-7"
     inkscape:window-y="0"
     inkscape:window-maximized="0"
     inkscape:current-layer="g1" />
  <g
     inkscape:groupmode="layer"
     inkscape:label="Image"
     id="g1"
     transform="translate(-24.216913,-40.25869)">
    <path
       style="fill:#000000"
       d="m 143.10692,358.58301 c -15.13281,-1.94183 -24.97509,-4.09405 -36.77208,-8.041 -42.155875,-14.10419 -67.700721,-38.03836 -78.859528,-73.8872 l -2.801465,-9 -0.332617,-64.70874 C 23.961961,129.16168 23.910375,129.73736 32.532135,111.53665 38.020199,99.95123 41.592574,94.75114 50.519772,85.35312 63.275736,71.92441 85.201286,58.44481 105.15633,51.76315 c 47.27459,-15.82924 106.12111,-15.2972 158.44688,1.43253 14.1362,4.51966 42.5,16.81595 42.5,18.42463 0,0.14737 -2.25,4.84385 -5,10.43664 -2.75,5.59278 -5,10.33616 -5,10.54085 0,0.32566 -2.45229,5.72056 -11.27618,24.80701 -1.20779,2.6125 -2.54792,4.75 -2.97807,4.75 -0.43015,0 -5.23718,-2.23567 -10.6823,-4.96816 -17.49337,-8.77858 -40.39354,-15.6491 -60.03722,-18.01238 -12.97448,-1.56093 -43.2617,-1.27702 -53.64524,0.50287 -32.31592,5.53941 -52.97832,20.71733 -61.123404,44.89926 l -2.721013,8.07841 0.0029,46 c 0.0025,39.80055 0.233309,47.01078 1.712751,53.5 6.501946,28.51924 27.818546,45.27275 63.780306,50.1273 11.75469,1.58679 38.59015,0.53908 52.61745,-2.05429 9.59721,-1.77434 31.76764,-7.97699 34.4599,-9.6409 0.48955,-0.30258 0.89012,-13.75044 0.89012,-29.88414 0,-22.58021 -0.2878,-29.4291 -1.25,-29.74709 -0.6875,-0.22721 -11.6,-0.28942 -24.25,-0.13827 -12.65,0.15116 -26.0375,0.0182 -29.75,-0.29538 l -6.75,-0.57021 v -25.89851 -25.89851 h 65.5 65.5 v 74.45246 74.45246 l -8.75,4.15903 c -33.1939,15.77767 -62.72291,24.06628 -99.46059,27.91796 -13.41615,1.40659 -52.0845,1.0761 -64.7857,-0.55371 z m 321.99629,0.91531 c -10.04565,-0.93626 -29.03517,-4.41442 -37.49195,-6.86709 -35.34698,-10.2515 -59.25949,-28.90148 -73.05367,-56.97642 -10.03966,-20.43347 -9.81087,-18.38528 -10.22091,-91.5 -0.38218,-68.14586 -0.37527,-68.26547 4.86594,-84.30422 10.74267,-32.87384 42.56835,-60.03716 84.63775,-72.23859 18.44917,-5.35084 31.59716,-6.91105 57.76284,-6.85448 35.64425,0.0771 59.77859,3.87225 82.98481,13.04956 10.36163,4.09769 31.53622,15.23895 32.18734,16.93575 0.44747,1.1661 -21.85129,45.58514 -24.36173,48.52847 -1.2544,1.4707 -1.93932,1.32213 -7.59458,-1.64731 -13.58378,-7.13254 -36.68946,-14.34783 -52.33608,-16.34316 -33.50828,-4.27314 -61.24164,-0.92138 -79.37976,9.59355 -14.06786,8.15534 -26.45519,24.31388 -28.91208,37.71409 -1.72085,9.38574 -1.45568,93.47899 0.32393,102.72837 2.01756,10.48609 5.08532,17.97411 10.07059,24.58099 12.63907,16.75035 35.74305,25.45473 67.51756,25.43711 31.85011,-0.0177 59.73151,-5.78733 81.5706,-16.8799 4.03511,-2.04952 7.52326,-3.51801 7.75144,-3.26331 0.77577,0.86589 22.67796,50.19157 22.67796,51.07276 0,1.15904 -28.83784,15.19626 -36.5,17.76688 -20.69559,6.94328 -38.17084,9.29565 -71.5,9.62472 -14.575,0.1439 -28.525,0.0729 -31,-0.15777 z"
       id="path1"
       inkscape:export-filename=".\path1.svg"
       inkscape:export-xdpi="96"
       inkscape:export-ydpi="96" />
  </g>
</svg>
