<svg xmlns="http://www.w3.org/2000/svg" xmlns:xlink="http://www.w3.org/1999/xlink" width="500" zoomAndPan="magnify" viewBox="0 0 375 374.999991" height="500" preserveAspectRatio="xMidYMid meet" version="1.0"><defs><clipPath id="824eb6d846"><path d="M 37.5 60.136719 L 105.667969 60.136719 L 105.667969 128.304688 L 37.5 128.304688 Z M 37.5 60.136719 " clip-rule="nonzero"/></clipPath><clipPath id="14b067287d"><path d="M 71.582031 60.136719 C 52.761719 60.136719 37.5 75.394531 37.5 94.21875 C 37.5 113.042969 52.761719 128.304688 71.582031 128.304688 C 90.40625 128.304688 105.667969 113.042969 105.667969 94.21875 C 105.667969 75.394531 90.40625 60.136719 71.582031 60.136719 Z M 71.582031 60.136719 " clip-rule="nonzero"/></clipPath><clipPath id="3452d14d4c"><path d="M 256.90625 49.253906 L 310.960938 49.253906 L 310.960938 103.304688 L 256.90625 103.304688 Z M 256.90625 49.253906 " clip-rule="nonzero"/></clipPath><clipPath id="412edd3b3d"><path d="M 283.933594 49.253906 C 269.007812 49.253906 256.90625 61.351562 256.90625 76.277344 C 256.90625 91.207031 269.007812 103.304688 283.933594 103.304688 C 298.859375 103.304688 310.960938 91.207031 310.960938 76.277344 C 310.960938 61.351562 298.859375 49.253906 283.933594 49.253906 Z M 283.933594 49.253906 " clip-rule="nonzero"/></clipPath><clipPath id="e38b75510c"><path d="M 172.726562 282.875 L 215.597656 282.875 L 215.597656 325.746094 L 172.726562 325.746094 Z M 172.726562 282.875 " clip-rule="nonzero"/></clipPath><clipPath id="933dbee52e"><path d="M 194.164062 282.875 C 182.324219 282.875 172.726562 292.472656 172.726562 304.3125 C 172.726562 316.152344 182.324219 325.746094 194.164062 325.746094 C 206 325.746094 215.597656 316.152344 215.597656 304.3125 C 215.597656 292.472656 206 282.875 194.164062 282.875 Z M 194.164062 282.875 " clip-rule="nonzero"/></clipPath><clipPath id="d97723e084"><path d="M 289.503906 191.914062 L 337.332031 191.914062 L 337.332031 239.742188 L 289.503906 239.742188 Z M 289.503906 191.914062 " clip-rule="nonzero"/></clipPath><clipPath id="f1165e8ebe"><path d="M 313.417969 191.914062 C 300.210938 191.914062 289.503906 202.621094 289.503906 215.828125 C 289.503906 229.035156 300.210938 239.742188 313.417969 239.742188 C 326.625 239.742188 337.332031 229.035156 337.332031 215.828125 C 337.332031 202.621094 326.625 191.914062 313.417969 191.914062 Z M 313.417969 191.914062 " clip-rule="nonzero"/></clipPath></defs><g clip-path="url(#824eb6d846)"><g clip-path="url(#14b067287d)"><path fill="#000000" d="M 37.5 60.136719 L 105.667969 60.136719 L 105.667969 128.304688 L 37.5 128.304688 Z M 37.5 60.136719 " fill-opacity="1" fill-rule="nonzero"/></g></g><g clip-path="url(#3452d14d4c)"><g clip-path="url(#412edd3b3d)"><path fill="#000000" d="M 256.90625 49.253906 L 310.960938 49.253906 L 310.960938 103.304688 L 256.90625 103.304688 Z M 256.90625 49.253906 " fill-opacity="1" fill-rule="nonzero"/></g></g><path stroke-linecap="butt" transform="matrix(0.74806, -0.0539093, 0.0539093, 0.74806, 95.581647, 87.556605)" fill="none" stroke-linejoin="miter" d="M 0.00214174 6.498783 L 226.326993 6.501171 " stroke="#000000" stroke-width="13" stroke-opacity="1" stroke-miterlimit="4"/><g clip-path="url(#e38b75510c)"><g clip-path="url(#933dbee52e)"><path fill="#000000" d="M 172.726562 282.875 L 215.597656 282.875 L 215.597656 325.746094 L 172.726562 325.746094 Z M 172.726562 282.875 " fill-opacity="1" fill-rule="nonzero"/></g></g><path stroke-linecap="butt" transform="matrix(0.263733, -0.7021, 0.7021, 0.263733, 192.417311, 304.445517)" fill="none" stroke-linejoin="miter" d="M -0.000698905 6.499559 L 325.451187 6.498992 " stroke="#000000" stroke-width="13" stroke-opacity="1" stroke-miterlimit="4"/><g clip-path="url(#d97723e084)"><g clip-path="url(#f1165e8ebe)"><path fill="#000000" d="M 289.503906 191.914062 L 337.332031 191.914062 L 337.332031 239.742188 L 289.503906 239.742188 Z M 289.503906 191.914062 " fill-opacity="1" fill-rule="nonzero"/></g></g><path stroke-linecap="butt" transform="matrix(0.594516, -0.457221, 0.457221, 0.594516, 184.653362, 312.146113)" fill="none" stroke-linejoin="miter" d="M -0.00133087 6.501082 L 214.223725 6.499245 " stroke="#000000" stroke-width="13" stroke-opacity="1" stroke-miterlimit="4"/><path stroke-linecap="butt" transform="matrix(-0.667406, -0.342153, 0.342153, -0.667406, 308.96102, 221.833637)" fill="none" stroke-linejoin="miter" d="M 0.00132445 6.498426 L 325.451963 6.50063 " stroke="#000000" stroke-width="13" stroke-opacity="1" stroke-miterlimit="4"/><path stroke-linecap="butt" transform="matrix(0.382191, 0.645314, -0.645314, 0.382191, 76.220229, 90.079242)" fill="none" stroke-linejoin="miter" d="M 0.0000000594308 6.497433 L 325.451607 6.50011 " stroke="#000000" stroke-width="13" stroke-opacity="1" stroke-miterlimit="4"/></svg>