<?xml version="1.0" encoding="UTF-8" standalone="no"?>
<!-- Created with Inkscape (http://www.inkscape.org/) -->

<svg
   version="1.1"
   id="svg1"
   width="2048"
   height="2048"
   viewBox="0 0 2048 2048"
   sodipodi:docname="hugging_face.svg"
   inkscape:version="1.3 (0e150ed, 2023-07-21)"
   xmlns:inkscape="http://www.inkscape.org/namespaces/inkscape"
   xmlns:sodipodi="http://sodipodi.sourceforge.net/DTD/sodipodi-0.dtd"
   xmlns="http://www.w3.org/2000/svg"
   xmlns:svg="http://www.w3.org/2000/svg">
  <defs
     id="defs1" />
  <sodipodi:namedview
     id="namedview1"
     pagecolor="#505050"
     bordercolor="#eeeeee"
     borderopacity="1"
     inkscape:showpageshadow="0"
     inkscape:pageopacity="0"
     inkscape:pagecheckerboard="0"
     inkscape:deskcolor="#505050"
     showgrid="false"
     inkscape:zoom="0.5"
     inkscape:cx="1019"
     inkscape:cy="861"
     inkscape:window-width="1851"
     inkscape:window-height="1243"
     inkscape:window-x="1910"
     inkscape:window-y="33"
     inkscape:window-maximized="0"
     inkscape:current-layer="svg1" />
  <path
     style="display:inline;fill:#ffffff"
     d="m 600.5,1831.8804 c -60.30203,-4.1969 -143.29836,-19.6987 -201,-37.5423 -9.9,-3.0614 -19.4736,-5.9891 -21.27467,-6.506 -8.14606,-2.3377 -55.97025,-19.4275 -73.89473,-26.406 -25.23547,-9.8249 -53.7882,-22.4748 -72.3306,-32.0452 -61.91399,-31.9558 -92.50388,-62.0909 -101.65487,-100.1436 -2.37941,-9.8943 -2.1205,-26.6572 0.56741,-36.7373 3.4946,-13.1053 11.27807,-27.6581 19.3672,-36.2109 l 3.03685,-3.2109 -2.67243,-3.2891 c -11.03579,-13.5823 -18.92911,-28.6233 -22.71756,-43.2891 -3.22033,-12.4666 -3.25612,-31.112 -0.0843,-43.9399 6.28539,-25.4206 22.23528,-45.6501 44.49645,-56.4356 l 7.83872,-3.7979 -4.04812,-4.6772 c -24.94749,-28.8246 -33.12688,-62.7853 -22.58601,-93.7767 5.47611,-16.1004 17.76442,-34.1335 30.31295,-44.4841 7.32019,-6.038 21.54751,-13.4323 30.64375,-15.9263 3.6529,-1.0015 11.67216,-1.8415 20.5,-2.1474 16.62649,-0.576 27.55536,1.1507 45.83295,7.2417 5.68312,1.8939 10.50045,3.4434 10.70518,3.4434 0.20474,0 -0.78216,-3.0375 -2.1931,-6.75 -29.56253,-77.7857 -45.17318,-148.2014 -51.48815,-232.25 -1.56861,-20.87736 -1.56134,-81.47994 0.0123,-102.5 6.47715,-86.51911 23.72807,-162.51828 54.17064,-238.64954 48.70117,-121.79273 129.188,-231.45941 231.46014,-315.37423 117.12072,-96.09816 260.70773,-156.67911 411,-173.40546 65.49882,-7.2895 134.3583,-6.44479 198,2.42891 170.7715,23.81105 327.5313,102.07771 449.5102,224.43033 126.0949,126.48123 204.9589,290.97586 223.9284,467.06999 6.4664,60.02734 5.7597,126.7543 -1.9699,186 -7.9984,61.3057 -24.7825,127.1211 -46.3916,181.915 l -4.3202,10.9545 5.1216,-2.0281 c 12.8391,-5.0843 18.2197,-6.8919 28.3068,-9.5092 9.776,-2.5366 12.4474,-2.8074 27.8147,-2.8192 14.7104,-0.011 18.0503,0.2914 24.7984,2.2472 15.5413,4.5044 26.9488,11.4584 37.9814,23.1535 23.6625,25.0835 32.2567,56.0723 24.1873,87.2134 -3.4511,13.3182 -9.7417,25.2429 -20.6874,39.2159 -3.8099,4.8636 -6.7814,8.9728 -6.6034,9.1315 0.178,0.1586 3.2487,1.7449 6.8237,3.5249 21.8635,10.8861 36.3615,28.4096 43.6042,52.704 3.5674,11.9659 4.4078,30.9775 1.914,43.2966 -3.2165,15.8895 -10.702,31.5574 -21.3083,44.6005 l -4.9608,6.1004 5.9018,7.3996 c 6.7066,8.4085 13.9046,22.3101 16.5171,31.8995 2.7322,10.0287 2.5073,31.0726 -0.4415,41.3022 -4.8643,16.875 -13.0001,30.2819 -27.5317,45.3691 -30.6983,31.8721 -84.5664,60.8181 -173.6594,93.3158 -58.216,21.235 -106.6396,34.8107 -162.0354,45.4272 -54.6179,10.4674 -90.8333,14.4618 -138.5689,15.2834 -34.8187,0.5993 -51.5577,-0.2091 -76.4311,-3.6915 -75.5195,-10.5729 -132.9419,-40.8033 -168.21,-88.5552 -4.1114,-5.5666 -6.7568,-8.2961 -7.7633,-8.0099 -2.6654,0.758 -33.0587,5.4538 -45.5267,7.0339 -62.0336,7.862 -131.10005,8.0283 -194.5,0.4684 -8.50427,-1.0141 -40.00462,-5.646 -43.18991,-6.3508 -1.16861,-0.2586 -3.90635,2.5364 -8.87498,9.0606 -39.82864,52.2982 -103.58236,81.7349 -193.43511,89.314 -13.97948,1.1791 -64.57984,1.1256 -82,-0.087 z m 87,-55.8636 c 57.9072,-6.172 100.86608,-23.1466 130.3647,-51.5119 11.19193,-10.7619 19.33231,-21.3642 29.54288,-38.4774 13.38797,-22.4387 21.34926,-41.3428 25.75153,-61.147 3.19234,-14.3612 3.234,-38.2531 0.0888,-50.9451 -8.19514,-33.0706 -24.54163,-59.1707 -60.71067,-96.9354 -37.66023,-39.3217 -62.8051,-73.2664 -90.94336,-122.7703 C 707.7217,1329.8242 684,1281.1517 684,1277.094 c 0,-2.5735 -8.19645,-21.5278 -12.64284,-29.2365 -6.19079,-10.733 -16.45494,-21.5747 -24.05667,-25.4103 -5.04812,-2.5471 -6.90301,-2.928 -14.30049,-2.9369 -7.55422,-0.01 -9.093,0.3182 -13.82947,2.9419 -11.87525,6.5781 -22.62492,23.1037 -27.3516,42.0478 -1.82332,7.3077 -2.2478,11.8204 -2.25752,24 -0.0163,20.4008 3.42436,35.2592 12.10334,52.2681 9.16397,17.9593 21.03091,31.631 42.21551,48.6358 18.85307,15.1332 28.51768,28.3626 29.80053,40.7922 2.55053,24.7122 -29.12659,38.0733 -57.43256,24.2245 -10.8145,-5.291 -16.31624,-12.211 -32.93173,-41.4206 -52.43753,-92.184 -99.08251,-161.9113 -131.26909,-196.2276 -27.41174,-29.2257 -62.81703,-40.4075 -78.80739,-24.8894 -4.40518,4.2751 -7.78168,10.8814 -9.38682,18.3659 -1.53728,7.1681 -0.50958,30.6578 1.65166,37.7511 5.16368,16.9475 23.56609,42.5999 53.43616,74.4886 4.64256,4.9562 24.44531,25.4364 44.00612,45.5114 40.63467,41.7028 46.90579,48.2923 56.92989,59.8198 16.36848,18.8233 26.12297,34.6279 26.12297,42.3253 0,4.2484 -3.41682,8.9848 -8.30531,11.5128 -11.15417,5.768 -35.52395,-6.42 -63.19469,-31.6055 -35.07775,-31.9272 -63.67478,-55.7622 -96,-80.0138 -37.96383,-28.4819 -64.81948,-45.7768 -91,-58.6036 -45.34877,-22.2181 -67.6909,-20.3712 -79.88621,6.6037 -3.53191,7.8123 -4.1132,13.4587 -2.16949,21.0741 2.43891,9.5556 6.88608,16.206 19.0557,28.4964 18.52594,18.7098 37.89586,31.9549 111,75.9015 77.2044,46.4115 104.20076,64.8284 120.76101,82.3831 9.10578,9.6526 12.16101,15.7089 12.16101,24.1062 0,5.1393 -0.57507,7.607 -2.74704,11.7879 -3.79501,7.3051 -5.73863,7.995 -14.7832,5.2478 -12.43982,-3.7784 -26.70067,-11.4062 -73.89178,-39.523 -93.24689,-55.557 -130.69652,-72.8159 -161,-74.1978 -10.14445,-0.4626 -12.17279,-0.2697 -17.2077,1.6364 -11.93175,4.517 -18.36777,16.0732 -17.65502,31.7003 0.51078,11.1991 5.15718,20.4816 15.35853,30.6829 18.7501,18.7501 44.52065,31.8254 123.50419,62.6627 45.63959,17.819 64.36373,26.7813 78.70112,37.6705 10.71105,8.135 16.38741,18.0204 14.73792,25.666 -2.33695,10.832 -8.80401,15.345 -20.57529,14.3581 -14.29907,-1.1988 -32.6356,-9.317 -83.84138,-37.1196 -53.70774,-29.1611 -76.12426,-37.5985 -96.63853,-36.3741 -12.44724,0.7429 -20.12504,5.594 -25.32581,16.0017 -10.18196,20.3759 5.84114,42.6538 49.19968,68.4053 39.22565,23.297 106.59768,50.6091 180.82722,73.306 51.49962,15.7469 128.28689,30.2031 180.91507,34.0596 7.975,0.5844 16.75,1.2312 19.5,1.4373 9.23832,0.6923 59.89823,-0.3145 70,-1.3912 z m 774.5,-0.4711 c 72.7774,-6.8614 144.254,-22.5012 217.4905,-47.5893 121.9998,-41.7924 189.7699,-82.9386 189.8887,-115.2897 0.03,-8.1348 -3.1179,-15.2132 -9.3633,-21.0551 -10.5492,-9.8675 -28.7978,-10.1935 -54.0159,-0.9651 -12.7068,4.65 -40.3011,18.1889 -69,33.8542 -47.196,25.7621 -63.8985,32.7488 -78.675,32.9101 -9.6272,0.1051 -12.4769,-1.3896 -16.075,-8.4312 -5.9838,-11.7105 0.4764,-24.0129 18.9368,-36.0622 9.6351,-6.289 34.1361,-17.8886 55.8132,-26.4239 74.0252,-29.1472 85.221,-33.9045 105.5,-44.8287 23.7389,-12.788 39.2354,-26.2804 46.0722,-40.1137 3.7024,-7.4912 3.9269,-8.4669 3.9121,-16.9992 -0.014,-7.7895 -0.4051,-9.8883 -2.8078,-15.049 -5.2814,-11.3439 -12.0204,-15.5947 -25.8379,-16.2981 -30.0971,-1.5322 -68.8298,15.644 -166.3856,73.7845 -46.9471,27.9792 -64.0328,37.0884 -76.1976,40.6248 -7.9238,2.3036 -9.8333,1.4576 -13.313,-5.8978 -8.0392,-16.9933 -1.3192,-29.2978 29.1404,-53.357 16.6423,-13.1453 41.3151,-28.9778 103.4054,-66.3555 22.5565,-13.5787 47.5339,-28.8614 55.5054,-33.9614 39.9209,-25.5409 60.5281,-43.6773 69.1535,-60.8622 3.0648,-6.1061 3.352,-7.4537 3.3423,-15.6802 -0.01,-8.2421 -0.2914,-9.5399 -3.3455,-15.4108 -4.71,-9.0539 -12.4284,-16.5023 -19.1775,-18.5065 -27.7654,-8.2455 -83.519,19.9256 -165.9664,83.8591 -26.745,20.7393 -57.5407,46.7383 -77.3614,65.3118 -30.0984,28.2044 -54.9862,40.9102 -67.5675,34.4948 -15.2594,-7.7809 -6.8156,-26.2068 30.6547,-66.8942 6.4758,-7.0318 26.4168,-27.6811 44.3133,-45.8873 60.9337,-61.9882 81.9168,-86.5424 93.3385,-109.2236 5.3358,-10.5958 6.9439,-18.4175 7.0402,-34.2433 0.071,-11.6033 -0.2389,-14.4289 -2.2032,-20.1113 -8.5062,-24.6074 -34.8992,-26.7123 -67.2146,-5.3604 -7.5846,5.0114 -26.2598,23.8603 -37.1331,37.4784 -30.3747,38.0422 -73.9335,105.517 -113.8863,176.4153 -10.4269,18.503 -14.9204,25.4651 -19.8364,30.7338 -10.57,11.3282 -23.8731,16.6166 -39.1111,15.5476 -9.4981,-0.6663 -13.6592,-1.9308 -19.6788,-5.9803 -16.2808,-10.9526 -15.3421,-30.6118 2.3755,-49.7485 3.695,-3.9909 12.1416,-11.6295 18.7702,-16.9746 14.6104,-11.7814 23.6241,-21.3429 32.0286,-33.9752 9.4991,-14.2773 15.5794,-29.3646 18.4734,-45.8385 1.4302,-8.1415 1.4265,-28.3088 -0.01,-36.2125 -3.0107,-16.6034 -10.0793,-31.8378 -18.9549,-40.8523 -7.1383,-7.2499 -13.2129,-10.2631 -21.8977,-10.8619 -20.3525,-1.4031 -38.8865,18.1294 -51.4675,54.2404 -10.8954,31.2732 -39.1361,84.7321 -66.0317,124.9967 -19.7232,29.527 -35.0453,48.4627 -62.7129,77.5033 -18.6459,19.5711 -21.9652,23.3863 -31.6529,36.3809 -14.1071,18.9228 -23.8108,38.098 -29.0399,57.3846 -2.4175,8.9162 -2.6435,11.3738 -2.6885,29.2345 -0.046,18.2971 0.1269,20.1785 2.8056,30.5 5.555,21.4045 15.8346,43.4229 31.0464,66.5 17.8194,27.0328 36.5421,43.4564 65.0988,57.1051 28.6639,13.6998 59.3958,20.7446 106,24.2988 10.9662,0.8363 62.9792,-0.3949 78.5,-1.8582 z m -374.9641,-87.9373 c 24.2579,-2.2968 51.6439,-5.9549 52.7328,-7.0437 0.2771,-0.2771 -0.5238,-2.88 -1.7798,-5.7843 -10.9201,-25.2509 -16.8089,-55.9818 -15.6712,-81.7804 2.385,-54.0847 24.8652,-98.3401 78.2264,-154 34.0856,-35.554 54.6899,-63.2024 81.2294,-109 11.175,-19.2839 31.5576,-60.4767 34.8792,-70.4901 14.3503,-43.2606 36.4234,-72.5155 65.8473,-87.2714 21.6192,-10.8419 50.0254,-11.4991 72.2473,-1.6716 14.3743,6.357 31.5671,21.1705 41.4335,35.6993 3.4291,5.0496 12.1989,22.4096 15.4835,30.6497 0.8965,2.2493 1.9692,1.0769 15.5534,-17 32.617,-43.4042 51.9626,-62.0149 78.7823,-75.7892 21.2085,-10.8925 34.9607,-14.4702 55.5,-14.4385 12.2327,0.019 15.1094,0.3564 22.7883,2.6734 16.0265,4.8359 28.4424,12.501 38.7772,23.9396 l 4.5655,5.0531 5.6651,-22.9272 c 10.3911,-42.0543 15.7704,-74.8989 19.8871,-121.4271 1.7113,-19.34044 1.7283,-89.55576 0.027,-110 -8.3198,-99.96268 -33.894,-190.46988 -78.1295,-276.5 C 1581.4401,448.38611 1415.4091,313.71183 1217.6579,259.46657 1107.618,229.28148 989.5673,225.32204 876.96436,248.03967 688.68732,286.02453 521.78795,397.88074 414.47609,558 c -54.43412,81.22075 -92.04555,172.74693 -109.92206,267.4917 -6.03736,31.99779 -9.47409,59.88459 -11.64707,94.5083 -1.46902,23.40711 -0.60655,83.4759 1.52196,106 4.31522,45.664 12.04648,88.2756 23.7149,130.7068 l 3.08182,11.2067 4.21455,-5.7067 c 19.96853,-27.0386 54.83766,-38.6798 90.40969,-30.1837 18.44254,4.4049 41.00106,15.5066 56.28632,27.7002 15.18683,12.1151 35.67846,35.107 57.28684,64.2767 5.90772,7.975 11.07936,14.625 11.49252,14.7778 0.41317,0.1528 1.29379,-1.5332 1.95694,-3.7466 2.26133,-7.5476 12.02748,-25.5134 18.59379,-34.205 27.39519,-36.2623 71.57656,-47.273 111.02807,-27.6698 27.6889,13.7583 47.86107,40.319 62.99338,82.9433 6.81276,19.1899 28.92712,62.6063 46.30063,90.9003 21.85503,35.5925 39.63562,58.707 68.95785,89.6441 27.39988,28.9088 38.84709,43.1758 51.77594,64.5296 19.51351,32.2294 28.47115,62.9151 28.557,97.8263 0.061,24.7997 -4.687,48.9771 -14.15025,72.0548 -2.27242,5.5417 -3.87354,10.3339 -3.55805,10.6494 1.28378,1.2838 45.61944,6.0617 71.12914,7.6653 15.17698,0.9541 86.8631,-0.2772 102.5359,-1.7611 z M 1002,1265.9194 c -91.88793,-4.0529 -166.39317,-47.7683 -213.05397,-125.0079 -24.91873,-41.2489 -41.02333,-91.7583 -43.93501,-137.7946 -1.92908,-30.50044 2.05845,-42.63507 15.17037,-46.16574 11.01197,-2.96522 25.54246,2.05465 73.81861,25.50222 17.325,8.4147 37.25782,17.84172 44.29515,20.94902 80.85143,35.6992 140.40425,42.996 208.47855,25.5443 30.8544,-7.9099 60.5144,-19.787 112.4278,-45.02083 47.3421,-23.01184 58.5371,-27.30441 71.3209,-27.34695 5.6174,-0.0187 7.77,0.43865 10.7589,2.28589 9.7291,6.01291 12.6214,21.52867 9.6395,51.71149 -6.3901,64.6825 -35.5952,130.7131 -77.8036,175.9087 -24.8367,26.5944 -55.2725,47.3709 -89.1172,60.8343 -26.1742,10.412 -57.5688,17.1534 -84.949,18.241 -6.903,0.2742 -14.576,0.621 -17.051,0.7707 -2.475,0.1496 -11.475,-0.036 -20,-0.4116 z M 525.5,860.39631 c -3.85,-0.79236 -11.26522,-3.52625 -16.47827,-6.07532 -7.78798,-3.80816 -10.91319,-6.07794 -17.52462,-12.72783 -11.64348,-11.7112 -17.41332,-23.44697 -19.42832,-39.51691 -3.91159,-31.19553 14.79978,-60.94733 45.13667,-71.76903 9.8265,-3.50529 26.15441,-4.31783 37.2338,-1.8529 25.04388,5.57173 45.53961,26.08466 51.1187,51.16159 2.38282,10.71035 1.55824,26.1443 -1.93308,36.18208 -11.31454,32.52999 -44.55704,51.50679 -78.12488,44.59832 z m 981.2634,0.63914 c -25.241,-4.6139 -45.7693,-22.50213 -53.3455,-46.48483 -6.2695,-19.84616 -3.3759,-40.07509 8.2612,-57.75399 22.5402,-34.24276 71.6078,-40.15165 102.1115,-12.29663 8.4835,7.74694 15.4983,18.53265 18.776,28.86948 13.5612,42.7682 -16.8138,86.27975 -61.5267,88.1358 -5.247,0.2178 -11.6714,0.006 -14.2765,-0.46983 z M 699.40999,812.95265 C 675.57345,800.4139 656.67441,776.51944 648.43194,748.5 c -3.76203,-12.78865 -4.51306,-34.74286 -1.65959,-48.51334 5.2604,-25.38598 19.84224,-48.03419 41.22765,-64.0339 8.10814,-6.06618 24.16638,-13.58285 35.52348,-16.62811 8.91361,-2.39007 11.73445,-2.67468 26.47652,-2.67134 18.01036,0.004 23.33343,0.97962 39.62332,7.26167 9.5016,3.66421 23.87002,12.86983 32.36878,20.73819 32.85001,30.41331 42.71471,81.23253 23.48664,120.99426 -4.05848,8.39253 -4.81158,9.33528 -9.12556,11.42364 -4.39516,2.12766 -5.15091,2.19923 -11.58058,1.09667 -3.78321,-0.64875 -11.01723,-2.79849 -16.07558,-4.77719 -26.65306,-10.42602 -36.55318,-12.31716 -44.97593,-8.59137 -6.77676,2.99768 -13.77716,10.0525 -24.01414,24.20082 -12.58295,17.39063 -15.24178,20.50341 -20.47297,23.96841 -6.23551,4.13023 -11.95098,4.12569 -19.82399,-0.0158 z M 1309.5,814.4365 c -4.8432,-2.50424 -11.1954,-9.24164 -18.7966,-19.9365 -10.182,-14.32597 -16.2616,-21.47715 -21.8243,-25.6708 -11.6344,-8.77108 -16.7235,-8.25557 -53.8823,5.45802 -21.8379,8.05937 -28.5553,5.75863 -36.0169,-12.33592 -9.2555,-22.44498 -10.5409,-50.23482 -3.3227,-71.83526 13.2277,-39.58323 46.789,-67.82628 86.9783,-73.19532 54.1215,-7.23031 105.1829,28.82834 116.9375,82.57928 2.7525,12.58637 2.3501,33.29148 -0.8877,45.66954 -7.7006,29.43961 -25.9366,53.56274 -50.8385,67.25054 -7.296,4.01036 -13.2293,4.66246 -18.3468,2.01642 z"
     id="path21" />
</svg>
