<?xml version="1.0" encoding="UTF-8" standalone="no"?>
<svg
   width="64"
   height="64"
   fill-rule="evenodd"
   version="1.1"
   id="svg14"
   sodipodi:docname="readcube_logo_icon_168874-BW-propper.svg"
   inkscape:version="1.2 (dc2aedaf03, 2022-05-15)"
   xmlns:inkscape="http://www.inkscape.org/namespaces/inkscape"
   xmlns:sodipodi="http://sodipodi.sourceforge.net/DTD/sodipodi-0.dtd"
   xmlns="http://www.w3.org/2000/svg"
   xmlns:svg="http://www.w3.org/2000/svg">
  <defs
     id="defs18" />
  <sodipodi:namedview
     id="namedview16"
     pagecolor="#ffffff"
     bordercolor="#666666"
     borderopacity="1.0"
     inkscape:showpageshadow="2"
     inkscape:pageopacity="0.0"
     inkscape:pagecheckerboard="0"
     inkscape:deskcolor="#d1d1d1"
     showgrid="false"
     inkscape:zoom="11.093762"
     inkscape:cx="27.85349"
     inkscape:cy="36.642213"
     inkscape:window-width="2195"
     inkscape:window-height="1164"
     inkscape:window-x="-7"
     inkscape:window-y="-6"
     inkscape:window-maximized="1"
     inkscape:current-layer="svg14" />
  <path
     id="path2484"
     style="fill:#000000;fill-opacity:1;stroke:none;stroke-opacity:1"
     d="m 44.109375,0.5 c -0.131952,5.8422e-4 -0.259543,0.008414 -0.382813,0.0234375 -0.123269,0.0150237 -0.24186,0.0369452 -0.357421,0.0664063 -0.115562,0.029461 -0.227111,0.0654788 -0.335938,0.109375 -0.108827,0.0438962 -0.215293,0.0959676 -0.318359,0.15429687 L 26.849609,9.7363281 h -0.002 c -0.141477,0.078598 -0.263626,0.1595217 -0.367187,0.2441407 -0.103562,0.084619 -0.187707,0.1734122 -0.257813,0.2675782 -0.07011,0.09417 -0.124905,0.193542 -0.166015,0.300781 -0.04111,0.107239 -0.06936,0.221864 -0.08594,0.345703 -0.01663,0.124215 -0.01929,0.243425 -0.0078,0.359375 0.01147,0.11595 0.03739,0.227922 0.08008,0.339844 0.04269,0.111922 0.100727,0.223808 0.177734,0.335938 0.07701,0.112129 0.172671,0.225223 0.287109,0.341796 l 4.978516,5.074219 0.47461,0.484375 10.169921,10.365234 c 0.114212,0.116343 0.23579,0.221107 0.365235,0.314454 0.129444,0.09335 0.267324,0.175375 0.414062,0.246093 0.146738,0.07072 0.302658,0.129277 0.46875,0.177735 0.166092,0.04846 0.341791,0.08672 0.529297,0.113281 0.187783,0.0266 0.366787,0.03934 0.539063,0.03906 0.172276,-2.78e-4 0.337292,-0.01433 0.496093,-0.04102 0.158802,-0.02668 0.311626,-0.06653 0.458985,-0.119141 0.147359,-0.05261 0.289786,-0.117241 0.427734,-0.195312 l 9.736328,-5.470703 0.328125,-0.185547 5.779297,-3.248047 0.002,-0.002 c 0.141549,-0.07864 0.263805,-0.159765 0.367188,-0.244141 0.103382,-0.08438 0.187976,-0.171767 0.257812,-0.265625 0.06984,-0.09386 0.123152,-0.193697 0.164063,-0.300781 0.04091,-0.107084 0.06933,-0.22165 0.08594,-0.345703 0.01681,-0.125604 0.02032,-0.246314 0.0098,-0.363281 -0.01056,-0.116968 -0.03522,-0.229325 -0.07617,-0.341797 -0.04095,-0.112473 -0.0975,-0.223817 -0.171875,-0.335938 -0.07437,-0.112121 -0.166528,-0.225886 -0.277344,-0.341797 L 46.412109,1.3867188 l -0.002,-0.00195 C 46.299589,1.2689027 46.182781,1.1651304 46.056641,1.0722656 45.930501,0.97940084 45.794478,0.89835676 45.650391,0.828125 45.506303,0.75789324 45.353862,0.6983545 45.189453,0.65039062 45.025044,0.60242675 44.849215,0.56512364 44.662109,0.5390625 44.470169,0.51257233 44.285056,0.49922219 44.109375,0.5 Z m -13.904297,0.0292969 c -0.04842,0.005382 -0.129527,0.0219659 -0.242187,0.0605469 -0.112661,0.038581 -0.256873,0.0991068 -0.431641,0.1953125 l -0.002,0.001953 -15.835938,8.90234372 c -0.307514,0.1773053 -0.62638,0.3976449 -0.953125,0.6601559 -0.326744,0.262512 -0.661368,0.567198 -1.003906,0.916016 -0.357776,0.364062 -0.665196,0.715438 -0.921875,1.050781 -0.128339,0.167672 -0.244048,0.330539 -0.347656,0.490235 -0.103608,0.159695 -0.1942,0.315609 -0.273438,0.466797 l -0.002,0.002 -8.7402341,16.154297 -0.00195,0.0039 C 1.3630444,29.58537 1.2968262,29.721627 1.25,29.835938 c -0.046826,0.11431 -0.074261,0.206673 -0.085937,0.271484 -0.00411,0.02279 -0.00169,0.0079 -0.00391,0.01172 0.06407,-0.01202 0.1553309,-0.04122 0.2695313,-0.08789 0.1142004,-0.04667 0.2513405,-0.110799 0.4042969,-0.195312 l 12.1777346,-6.791016 1.929687,-3.570313 v -0.002 c 0.104357,-0.191175 0.224544,-0.366726 0.357422,-0.523437 0.132878,-0.156711 0.277628,-0.29407 0.435547,-0.41211 0.157919,-0.118039 0.328333,-0.215855 0.507813,-0.291015 0.179479,-0.07516 0.368846,-0.128177 0.566406,-0.15625 h 0.002 c 0.08895,-0.01456 0.183678,-0.02755 0.285156,-0.03125 0.172604,-0.0064 0.343053,0.0082 0.509766,0.04297 0.166712,0.03478 0.32991,0.08975 0.488281,0.16211 0.158371,0.07236 0.311404,0.163149 0.458984,0.269531 0.147581,0.106382 0.289489,0.228389 0.423828,0.365235 l 0.04883,0.05078 c 0.243164,-0.273206 0.479147,-0.544775 0.685547,-0.806641 0.206399,-0.261866 0.383215,-0.514031 0.505859,-0.748047 l 0.002,-0.002 8.714844,-16.1953124 v -0.00195 c 0.08287,-0.1520093 0.144901,-0.28754126 0.189453,-0.40039062 0.04455,-0.11284937 0.07163,-0.20301685 0.08203,-0.265625 z M 1.1582031,30.121094 c -0.019042,0.0043 -0.025242,0.0086 -0.021484,0.01172 0.00417,0.0034 0.014418,0.0049 0.011719,0.0059 6.9e-4,-0.0018 0.00665,-0.01526 0.00977,-0.01758 z M 31.720703,19.013672 28.669922,24.660156 v 0.002 c -0.07656,0.140437 -0.140248,0.286097 -0.191406,0.4375 -0.05116,0.151404 -0.09019,0.308295 -0.115235,0.472657 -0.02505,0.164362 -0.03693,0.336312 -0.03516,0.515625 0.0018,0.179312 0.01758,0.366244 0.04687,0.5625 v 0.0039 l 0.002,0.0039 c 0.02116,0.156156 0.05334,0.300225 0.0957,0.435547 0.04236,0.135322 0.09557,0.261138 0.154297,0.380859 0.11745,0.239442 0.262124,0.453674 0.416016,0.66211 5.060465,5.265526 9.69302,10.052038 14.929685,15.380859 0.309982,-0.289202 0.618125,-0.566117 0.923828,-0.814453 0.152852,-0.124168 0.30566,-0.242209 0.457032,-0.349609 0.151371,-0.107401 0.301555,-0.204751 0.451172,-0.291016 l 0.0039,-0.002 3.601562,-2.011719 6.583985,-12.166016 c 0.07759,-0.145754 0.143228,-0.294542 0.195312,-0.449218 0.05208,-0.154676 0.09083,-0.31503 0.117188,-0.480469 0.02635,-0.165439 0.03866,-0.337582 0.03906,-0.515625 4e-4,-0.178043 -0.01133,-0.362198 -0.03711,-0.554688 v -0.002 c -0.02159,-0.158828 -0.05606,-0.305447 -0.09961,-0.443359 -0.04355,-0.137912 -0.09538,-0.266678 -0.15625,-0.388672 -0.06087,-0.121993 -0.129569,-0.238536 -0.203125,-0.349609 -0.07355,-0.111073 -0.152773,-0.217116 -0.234375,-0.322266 l -9.294922,5.224609 c -0.187956,0.106249 -0.38389,0.194782 -0.585937,0.265626 -0.202047,0.07084 -0.410909,0.1243 -0.625,0.160156 -0.214091,0.03586 -0.43216,0.0534 -0.65625,0.05469 -0.22409,0.0013 -0.453503,-0.014 -0.685547,-0.04687 -0.232487,-0.03294 -0.457836,-0.08233 -0.673828,-0.146484 -0.215992,-0.06415 -0.421764,-0.143102 -0.619141,-0.238281 -0.197376,-0.09518 -0.385858,-0.206017 -0.5625,-0.332032 -0.176641,-0.126014 -0.342306,-0.267171 -0.496093,-0.423828 z m -13.589844,0.04492 c -0.04713,0.0017 -0.104478,0.0089 -0.167968,0.01953 h -0.0059 -0.0059 c -0.120736,0.01706 -0.233317,0.04482 -0.337891,0.08594 -0.104574,0.04111 -0.201061,0.0962 -0.292969,0.166016 -0.09191,0.06982 -0.178981,0.154642 -0.261718,0.257813 -0.08274,0.10317 -0.161219,0.22406 -0.238282,0.365234 l -1.998046,3.695313 -0.06836,0.126953 -6.6660154,12.33789 c -0.077374,0.145344 -0.1420829,0.295068 -0.1933594,0.449219 -0.051276,0.154151 -0.088464,0.313625 -0.1132812,0.478516 -0.024818,0.16489 -0.037159,0.334157 -0.035156,0.511718 0.002,0.177562 0.017691,0.362525 0.046875,0.554688 v 0.0039 l 0.00195,0.0039 c 0.025764,0.190125 0.060969,0.370135 0.1074219,0.539063 0.046453,0.168928 0.104787,0.327135 0.171875,0.476562 0.067088,0.149427 0.144751,0.288301 0.2324218,0.419922 0.087671,0.131621 0.1847677,0.255584 0.2929688,0.371094 0.0382,0.04083 0.026818,0.03086 0.011719,0.01563 l 0.00391,0.0039 15.6230465,15.896485 0.002,0.002 c 0.110725,0.115814 0.21835,0.211811 0.324219,0.289062 0.105869,0.07725 0.210571,0.135404 0.316406,0.177735 0.105836,0.04233 0.211643,0.06903 0.322266,0.08008 0.110623,0.01105 0.225472,0.0068 0.345703,-0.0098 0.119431,-0.01647 0.230174,-0.04457 0.333984,-0.08594 0.103811,-0.04137 0.201346,-0.09683 0.292969,-0.167969 0.09162,-0.07113 0.176895,-0.157902 0.259766,-0.263672 0.08287,-0.10577 0.162682,-0.229723 0.240234,-0.375 h 0.002 l 5.332032,-9.851563 0.322265,-0.595703 3.082031,-5.697265 v -0.002 c 0.07672,-0.14073 0.141553,-0.287277 0.19336,-0.439453 0.05181,-0.152177 0.09081,-0.309259 0.117187,-0.47461 0.02638,-0.165351 0.04057,-0.339276 0.04102,-0.519531 4.46e-4,-0.180255 -0.01307,-0.367565 -0.03906,-0.564453 -0.02122,-0.156575 -0.05451,-0.301614 -0.09766,-0.4375 -0.04315,-0.135886 -0.09604,-0.262515 -0.15625,-0.382813 C 35.352254,36.27889 35.202469,36.064267 35.042986,35.855423 30.015161,30.788155 24.738926,25.150815 20.072283,20.421829 L 19.712908,20.056595 19.261736,19.59761 c -0.10016,-0.102028 -0.19783,-0.187052 -0.292969,-0.257812 -0.09514,-0.07076 -0.18866,-0.127172 -0.28125,-0.169922 -0.09259,-0.04275 -0.182877,-0.07185 -0.275391,-0.08984 -0.09251,-0.018 -0.186339,-0.02498 -0.28125,-0.02148 z m 44.71875,14.677734 c -0.0022,-0.0014 -0.005,0.02857 -0.0098,0.06055 0.03731,-0.0059 0.06376,-0.0091 0.06055,-0.01172 -0.0027,-0.0022 -0.01972,-0.01095 -0.0332,-0.01953 0.0037,0.006 0.0035,0.0077 0.0098,0.01367 l -0.01172,-0.01172 -0.01172,-0.01172 c 0.0056,0.006 0.0078,0.006 0.01367,0.0098 -0.0075,-0.01212 -0.01565,-0.02806 -0.01758,-0.0293 z m -0.0098,0.06055 c -0.0083,0.0013 -0.0024,8e-5 -0.01367,0.002 -0.06141,0.01024 -0.150685,0.03729 -0.263672,0.08203 -0.112987,0.04474 -0.249683,0.10718 -0.402344,0.191407 l -12.007812,6.707031 -0.126953,0.07227 -3.720703,2.078126 c -0.307438,0.177261 -0.62704,0.396387 -0.957032,0.658203 -0.329992,0.261815 -0.670376,0.566322 -1.019531,0.914062 -8e-4,9e-4 -0.003,0.0029 -0.0039,0.0039 l -0.002,0.002 c -0.007,0.0074 -0.0136,0.01497 -0.02734,0.0293 -0.341451,0.357435 -0.63796,0.702314 -0.890625,1.033203 -0.252665,0.33089 -0.461488,0.647792 -0.625,0.947266 l -0.002,0.0039 -8.691406,16.1875 v 0.002 c -0.08303,0.152295 -0.147341,0.289309 -0.19336,0.404296 -0.04602,0.114988 -0.07375,0.207948 -0.08594,0.275391 -0.01097,0.06069 -0.01326,0.0236 -0.01367,0.0332 0.01154,-0.002 -0.02191,-0.0035 0.01172,-0.0098 0.06119,-0.0114 0.14912,-0.04035 0.259765,-0.08789 0.110645,-0.04754 0.244007,-0.11367 0.392578,-0.201172 l 0.0039,-0.002 15.845703,-8.904297 c 0.298466,-0.169374 0.612148,-0.384227 0.941406,-0.646484 0.329258,-0.262258 0.674095,-0.571923 1.03125,-0.927735 0.338443,-0.357151 0.638702,-0.704845 0.898437,-1.041015 0.259735,-0.336171 0.478948,-0.660821 0.652344,-0.972657 l 8.734375,-16.146484 v -0.002 c 0.08287,-0.152009 0.144902,-0.287541 0.189453,-0.400391 0.04455,-0.112849 0.07163,-0.203017 0.08203,-0.265625 0.0026,-0.01535 0.0023,-0.0091 0.0039,-0.01953 z M 8.1425781,40.886719 2.2929688,44.171875 c -0.137872,0.07824 -0.2564858,0.15807 -0.3574219,0.242187 -0.1009361,0.08412 -0.183482,0.171717 -0.2519531,0.265626 -0.068471,0.09391 -0.1216323,0.195122 -0.1621094,0.302734 -0.040477,0.107612 -0.068984,0.222427 -0.085937,0.347656 l -0.00195,0.0059 v 0.0059 c -0.018835,0.1196 -0.024732,0.233552 -0.015625,0.345703 0.00911,0.112151 0.033618,0.222866 0.074219,0.332031 0.040601,0.109166 0.098182,0.217481 0.1738281,0.328125 0.075646,0.110645 0.1689602,0.223256 0.2832032,0.339844 L 17.572266,62.609375 c 0.114316,0.116449 0.235711,0.220895 0.365234,0.314453 0.129523,0.09356 0.267303,0.177104 0.414062,0.248047 0.14676,0.07094 0.302726,0.129132 0.46875,0.177734 0.166025,0.0486 0.341979,0.08674 0.529297,0.113282 0.187488,0.02656 0.367732,0.0395 0.541016,0.03906 0.173284,-4.38e-4 0.339005,-0.01403 0.5,-0.04102 0.160995,-0.02699 0.316175,-0.068 0.466797,-0.121094 0.150622,-0.0531 0.297289,-0.118509 0.439453,-0.197266 l 15.837891,-8.90039 c 0.137801,-0.0782 0.256307,-0.157829 0.357422,-0.242188 0.101114,-0.08436 0.185166,-0.173364 0.253906,-0.267578 0.06874,-0.09421 0.121432,-0.194966 0.162109,-0.302734 0.04068,-0.107769 0.06901,-0.222638 0.08594,-0.347657 l 0.0039,-0.0293 c 0.01734,-0.121919 0.02263,-0.237556 0.01367,-0.349609 -0.009,-0.112053 -0.03111,-0.221235 -0.07031,-0.328125 -0.0392,-0.10689 -0.09458,-0.211928 -0.167968,-0.318359 -0.07339,-0.106431 -0.165835,-0.213544 -0.277344,-0.324219 l -0.002,-0.0039 -4.927735,-5.023438 -5.007812,9.251953 -0.002,0.002 c -0.103967,0.194365 -0.222853,0.37315 -0.355469,0.533204 -0.132616,0.160053 -0.27944,0.30107 -0.4375,0.421874 -0.158061,0.120805 -0.327512,0.220257 -0.507813,0.296876 -0.180301,0.07662 -0.370975,0.130707 -0.570312,0.158203 -0.198329,0.02736 -0.394739,0.02806 -0.587891,0.0039 -0.193151,-0.02415 -0.383013,-0.07257 -0.566406,-0.144531 -0.183393,-0.07196 -0.360244,-0.167126 -0.529297,-0.283204 -0.169052,-0.116077 -0.330337,-0.253662 -0.480469,-0.410156 z" />
</svg>
