<?xml version="1.0" encoding="UTF-8"?>
<!DOCTYPE svg PUBLIC "-//W3C//DTD SVG 1.1//EN" "http://www.w3.org/Graphics/SVG/1.1/DTD/svg11.dtd">
<svg xmlns="http://www.w3.org/2000/svg" xml:space="preserve" width="71.667" height="110.157">
  <g stroke-miterlimit="10">
    <path fill="none" stroke="#000" stroke-width="3" d="M43.823 68.206s-3.337 23.808-1.021 22.78m-13.814-22.78s-3.336 23.808-1.02 22.78"/>
    <path fill="#FFF" stroke="#000" stroke-width="3.2285" d="M64.758 47.554c0 13.767-4.369 26.001-11.136 33.738-4.733 5.412-10.64-7.245-17.045-7.245-6.438 0-12.371 12.626-17.117 7.165-6.728-7.74-11.065-19.938-11.065-33.658 0-23.396 12.617-42.362 28.183-42.362 15.563 0 28.18 18.966 28.18 42.362z"/>
    <path fill="#FFF" stroke="#000" stroke-width="3.2285" d="M28.988 8.916 14.747 4.417l5.316 11.132"/>
    <path fill="#FFF" stroke="#936C2A" stroke-dasharray="1.5 1.5" stroke-width="1.5" d="M29.871 19.311c-1.197-.983-1.762-1.547-2.858-2.002-5.32-2.206-10.433 3.784-10.433 8.451 0 3.322 2.367 6.195 5.806 7.577.491.197 1.534.497 1.534.497l1.201.846 7.984 5.624 13.372-3.565c5.654 0 10.24-3.959 10.24-8.843 0-4.883-6.213-11.308-10.24-8.842-1.396.855-2.828 1.627-4.107 2.943"/>
    <path fill="none" stroke="#000" stroke-linecap="round" stroke-width="3" d="M47.752 90.636H21.096"/>
    <path fill="none" stroke="#000" stroke-width="2" d="M23.043 49.167c.063-9.378 19.096-3.335 18.04-9.75-.374-2.276-1.476-6.723-3.762-6.266-9.253 1.85-10.216 5.956-9.253 7.962 1.156 2.412 5.843 11.089 8.508 8.054"/>
    <path fill="#FFF" stroke="#000" stroke-width="3.2285" d="m55.991 19.311 6.926-8.894-15.165 1.63"/>
    <g stroke="#000">
      <path fill="#FFF" stroke-width="2.0487" d="M67.453 106.113H6.699s-3.219-5.358-3.185-7.616c.032-2.172 3.185-7.19 3.185-7.19h60.753s-1.93 5.13-1.96 7.19c-.029 2.152 1.961 7.616 1.961 7.616z"/>
      <path fill="none" stroke-width="2.2778" d="M5.248 93.843h61.328m-61.328 9.73h61.328"/>
    </g>
    <path fill="#FFF" stroke="#000" stroke-width="3.2285" d="m31.32 26.757 3.906 9.065 6.691-7.654"/>
    <ellipse cx="28.988" cy="24.909" fill="none" stroke="#000" stroke-width="3.2285" rx="3.374" ry="2.913"/>
    <ellipse cx="45.742" cy="26.757" fill="none" stroke="#000" stroke-width="3.2285" rx="3.374" ry="2.913"/>
  </g>
  <g fill-rule="evenodd" clip-rule="evenodd">
    <path d="M14.878 61.778c5.51-.013 10.925-.026 16.442-.041.139 3.702-.422 7.296-3.882 9.564-2.798 1.832-5.901 1.815-8.701-.01-3.477-2.27-4.002-5.869-3.859-9.513zm9.134-13.465c4.907.336 7.628 4.581 7.278 11.205-2.44-.01-4.877-.019-7.36-.027-.119-.804-.188-1.671 1.002-2.438 1.451-.937 1.301-4.677-.024-5.886-1.156-1.056-1.156-1.056-.896-2.854zm-1.752-.018c.08 1.099.283 2.056-.957 2.89-1.543 1.036-1.574 5.017-.024 5.934 1.285.76 1.05 1.632.961 2.691-2.42-.051-4.777-.099-7.182-.148-1.398-5.293 2.085-10.978 7.202-11.367z"/>
    <path d="M21.705 56.346c-.085-1.668-.271-2.95 0-4.055.031-.13 2.308-.091 2.312-.042.092 1.145-.053 2.963-.199 4.097-.025.182-.984.047-2.113 0z"/>
  </g>
</svg>