<?xml version="1.0" encoding="UTF-8" standalone="no"?>
<svg
   viewBox="0 0 71.408073 79.596352"
   width="71.408073"
   height="79.596352"
   version="1.1"
   id="svg6"
   sodipodi:docname="ams-logo-notext.svg"
   inkscape:version="1.4 (e7c3feb100, 2024-10-09)"
   xmlns:inkscape="http://www.inkscape.org/namespaces/inkscape"
   xmlns:sodipodi="http://sodipodi.sourceforge.net/DTD/sodipodi-0.dtd"
   xmlns="http://www.w3.org/2000/svg"
   xmlns:svg="http://www.w3.org/2000/svg">
  <defs
     id="defs6" />
  <sodipodi:namedview
     id="namedview6"
     pagecolor="#ffffff"
     bordercolor="#666666"
     borderopacity="1.0"
     inkscape:showpageshadow="2"
     inkscape:pageopacity="0.0"
     inkscape:pagecheckerboard="0"
     inkscape:deskcolor="#d1d1d1"
     inkscape:zoom="5.0542857"
     inkscape:cx="62.026569"
     inkscape:cy="45.901639"
     inkscape:window-width="1920"
     inkscape:window-height="1023"
     inkscape:window-x="0"
     inkscape:window-y="33"
     inkscape:window-maximized="1"
     inkscape:current-layer="svg6" />
  <path
     d="m 41.157568,77.224136 a 1.2218224,1.2218224 0 1 0 -1.33,2.05 1.2218224,1.2218224 0 0 0 1.33,-2.05 m -31.12,-24.9 a 3.7820167,3.7820167 0 1 0 -6.3499996,-4.11 3.7820167,3.7820167 0 0 0 6.3499996,4.11 m 3.14,3.93 a 3.3506305,3.3506305 0 1 0 -3.6499996,5.62 3.3506305,3.3506305 0 0 0 3.6499996,-5.62 m 5.23,7.34 a 2.91,2.91 0 1 0 -3.17,4.88 2.91,2.91 0 0 0 3.17,-4.88 m 5.93,5.52 a 2.5019193,2.5019193 0 1 0 -2.72,4.2 2.5019193,2.5019193 0 1 0 2.72,-4.2 m 6.1,3.92 a 2.0762105,2.0762105 0 1 0 -2.25,3.49 2.0762105,2.0762105 0 0 0 2.25,-3.49 m 5.65,2.48 a 1.62,1.63 0 0 0 -2.27,0.48 c -0.5,0.77 -0.28,1.79 0.49,2.27 0.76,0.5 1.78,0.28 2.26,-0.48 0.5,-0.77 0.28,-1.79 -0.48,-2.27 m -28.1699996,-33.32 a 4.2062662,4.2162811 0 1 0 -7.06999996,-4.57 4.2062662,4.2162811 0 0 0 7.06999996,4.57 m -5.47,-9.9 a 4.63,4.63 0 1 0 5.04,-7.76 4.6307262,4.6307262 0 0 0 -5.04,7.77"
     class="amsLogoSVG blue"
     id="path2"
     style="fill:#0057b8;stroke:#0057b8;stroke-width:0.21" />
  <path
     d="m 27.397568,65.454136 a 1.2,1.2 0 0 0 -1.51,-0.8 1.2,1.2 0 0 0 -0.8,1.5 1.22,1.22 0 0 0 2.32,-0.7 m -7.86,-39.12 a 3.78,3.79 0 1 0 -2.22,-7.24 3.78,3.79 0 0 0 2.22,7.24 m -0.11,5.04 a 3.344392,3.3544052 0 1 0 -6.4,1.95 3.344392,3.3544052 0 0 0 6.4,-1.95 m -0.7,9 a 2.9243162,2.9243162 0 1 0 -5.59,1.72 2.9257905,2.9257905 0 0 0 5.59,-1.73 m 1,8.04 a 2.5,2.5 0 1 0 -1.67,3.1 2.5,2.5 0 0 0 1.66,-3.1 m 2.16,6.94 a 2.07,2.07 0 1 0 -3.95,1.21 2.07,2.07 0 0 0 3.95,-1.2 m 2.72,5.52 a 1.64,1.64 0 1 0 -3.13,0.96 1.64,1.64 0 1 0 3.13,-0.96 m -0.18,-43.66 a 4.2039624,4.2039624 0 1 0 -2.46,-8.0400002 4.2039624,4.2039624 0 0 0 2.46,8.0400002 m 2.17,-11.1000002 a 4.63,4.63 0 1 0 8.85,-2.72 4.6307505,4.6307505 0 0 0 -8.85,2.73"
     class="amsLogoSVG orange"
     id="path3"
     style="fill:#e87722;stroke:#e87722;stroke-width:0.21" />
  <path
     d="m 24.977568,48.824136 a 1.21,1.21 0 0 0 -0.65,-1.6 1.21,1.21 0 0 0 -1.58,0.65 1.21,1.21 0 0 0 0.64,1.59 1.21,1.21 0 0 0 1.59,-0.64 m 19.08,-35 a 3.78,3.78 0 1 0 2.94,-6.9600002 3.78,3.78 0 0 0 -2.94,6.9600002 m -3.3,3.78 a 3.36,3.36 0 0 0 -6.16,-2.62 3.36,3.36 0 0 0 6.15,2.62 m -6.31,6.43 a 2.921592,2.921592 0 1 0 -5.38,-2.28 2.921592,2.921592 0 0 0 5.38,2.28 m -4.4,6.8 a 2.5,2.5 0 1 0 -4.6,-1.94 2.5,2.5 0 0 0 4.6,1.94 m -2.81,6.7 a 2.07,2.07 0 0 0 -1.09,-2.7 2.06,2.06 0 1 0 1.1,2.7 m -1.46,6 a 1.65,1.65 0 0 0 -0.88,-2.16 1.641,0.64 0 0 0 -2.14,0.87 1.65,1.65 0 0 0 3.03,1.29 m 27.88,-33.5600002 a 4.2,4.2 0 1 0 3.27,-7.73 4.2,4.2 0 0 0 -3.27,7.73 m 8.78,-7.1 a 4.62,4.62 0 1 0 8.5,3.61 4.62,4.62 0 0 0 -8.5,-3.61"
     class="amsLogoSVG gray"
     id="path4"
     style="fill:#98a4ae;stroke:#98a4ae;stroke-width:0.21" />
</svg>
