<?xml version="1.0" encoding="UTF-8"?>
<!-- Generator: Adobe Illustrator 17.0.1, SVG Export Plug-In . SVG Version: 6.00 Build 0)  -->
<!DOCTYPE svg PUBLIC "-//W3C//DTD SVG 1.1//EN" "http://www.w3.org/Graphics/SVG/1.1/DTD/svg11.dtd">
<svg version="1.1" id="Ebene_1" xmlns="http://www.w3.org/2000/svg" xmlns:xlink="http://www.w3.org/1999/xlink" x="0px" y="0px" width="214.211px" height="174.52px" viewBox="0 0 214.211 174.52" enable-background="new 0 0 214.211 174.52" xml:space="preserve">
<polygon fill="#0069B4" points="103.506,88.245 85.106,44.307 93.229,44.307 106.952,76.676 121.106,44.307 130.028,44.307   110.767,88.245 "/>
<polygon fill="#0069B4" points="121.905,118.521 121.905,74.399 153.904,74.399 153.904,81.845 130.028,81.845 130.028,92.921   147.012,92.921 147.012,100.675 130.028,100.675 130.028,111.075 153.904,111.075 153.904,118.521 "/>
<g>
	<defs>
		<rect id="SVGID_1_" width="214.211" height="174.52"/>
	</defs>
	<clipPath id="SVGID_2_">
		<use xlink:href="#SVGID_1_" overflow="visible"/>
	</clipPath>
	<path clip-path="url(#SVGID_2_)" fill="#0069B4" d="M19.877,174.52v-34.399C8.246,138.52,0,130.952,0,118.767   c0-5.292,1.846-10.092,5.354-14.092l84.613-96.49C94.336,3.2,100.429,0,107.075,0c6.707,0,12.799,3.2,17.168,8.185l84.614,96.49   c3.446,3.938,5.354,8.8,5.354,14.031c0,12.553-8,19.63-19.876,21.415v34.399H19.877z M95.321,14.092l-82.89,93.783   c-2.585,2.954-4.492,6.215-4.492,10.276c0,8.801,7.568,13.97,15.814,13.97h166.705c8.246,0,15.815-5.169,15.815-13.97   c0-4.061-1.908-7.322-4.493-10.276l-82.89-93.783c-3.138-3.569-6.769-6.4-11.815-6.4C102.09,7.692,98.46,10.523,95.321,14.092    M27.507,167.258h159.197V140.12H27.507V167.258z"/>
	<path clip-path="url(#SVGID_2_)" fill="#0069B4" d="M66.952,81.845v29.23h11.2c2.585,0,5.108-2.093,5.108-4.8V86.583   c0-2.646-2.523-4.738-5.108-4.738H66.952z M59.26,118.521V74.399h18.892c7.138,0,13.169,4.8,13.169,12.307v19.507   c0,7.446-6.031,12.308-13.169,12.308H59.26z"/>
</g>
</svg>