<?xml version="1.0" encoding="UTF-8" standalone="no"?>
<svg xmlns:osb="http://www.openswatchbook.org/uri/2009/osb" xmlns:dc="http://purl.org/dc/elements/1.1/" xmlns:cc="http://creativecommons.org/ns#" xmlns:rdf="http://www.w3.org/1999/02/22-rdf-syntax-ns#" xmlns:svg="http://www.w3.org/2000/svg" xmlns="http://www.w3.org/2000/svg" xmlns:xlink="http://www.w3.org/1999/xlink" version="1.1" id="svg2" height="96.034225" width="503.9335">
  <defs id="defs4">
    <linearGradient osb:paint="solid" id="linearGradient4194">
      <stop id="stop4196" offset="0" style="stop-color:#ffffff;stop-opacity:1;"/>
    </linearGradient>
    <linearGradient osb:paint="solid" id="linearGradient4188">
      <stop id="stop4190" offset="0" style="stop-color:#000000;stop-opacity:1;"/>
    </linearGradient>
    <linearGradient gradientUnits="userSpaceOnUse" y2="510.42371" x2="398.95789" y1="510.42371" x1="99.203812" id="linearGradient4198" xlink:href="#linearGradient4194"/>
    <linearGradient y2="510.42371" x2="398.95789" y1="510.42371" x1="99.203812" gradientUnits="userSpaceOnUse" id="linearGradient4212" xlink:href="#linearGradient4194"/>
    <linearGradient gradientTransform="translate(5.7177814,414.53915)" y2="510.42371" x2="398.95789" y1="510.42371" x1="99.203812" gradientUnits="userSpaceOnUse" id="linearGradient4226" xlink:href="#linearGradient4194"/>
    <linearGradient y2="510.42371" x2="398.95789" y1="510.42371" x1="99.203812" gradientTransform="translate(5.7177814,414.53915)" gradientUnits="userSpaceOnUse" id="linearGradient4258" xlink:href="#linearGradient4194"/>
    <linearGradient y2="510.42371" x2="398.95789" y1="510.42371" x1="99.203812" gradientUnits="userSpaceOnUse" id="linearGradient3205" xlink:href="#linearGradient4194"/>
    <linearGradient y2="510.42371" x2="398.95789" y1="510.42371" x1="99.203812" gradientUnits="userSpaceOnUse" id="linearGradient3797" xlink:href="#linearGradient4194"/>
    <linearGradient gradientTransform="matrix(0.1974206,0,0,0.1974206,2.0936779,24.062112)" y2="510.42371" x2="398.95789" y1="510.42371" x1="99.203812" gradientUnits="userSpaceOnUse" id="linearGradient3807" xlink:href="#linearGradient4194"/>
  </defs>
  <metadata id="metadata7">
    <rdf:RDF>
      <cc:Work rdf:about="">
        <dc:format>image/svg+xml</dc:format>
        <dc:type rdf:resource="http://purl.org/dc/dcmitype/StillImage"/>
        <dc:title/>
      </cc:Work>
    </rdf:RDF>
  </metadata>
  <g transform="translate(-5.9535498,-64.716217)" id="layer1">
    <g id="g3825">
      <circle r="228.71126" cy="517.74963" cx="410.25082" style="fill:#ffffff;stroke:#ffffff" id="path3177" transform="matrix(0.1974206,0,0,0.1974206,-29.78739,13.284973)"/>
      <g id="g3817">
        <path id="path4186" d="m 35.464059,98.902962 -6.420094,7.407798 -1.763762,11.28808 0.564404,3.59808 -1.481561,-2.11652 -2.257615,0.42331 -1.975414,1.83431 -0.352752,3.80973 0.987706,3.24532 2.398718,0.91715 2.469265,-1.05825 0.987707,0.4233 -0.07055,5.50294 1.622661,6.06734 2.963122,5.29129 2.822019,3.03367 3.033671,2.39871 4.162479,1.55212 4.726883,0.9877 3.950827,0.1411 4.797435,-0.2822 4.726881,-1.69321 5.361838,-3.10422 2.89257,-3.52753 2.82202,-4.86798 0.846605,-5.00909 0.564404,-7.19615 2.116515,1.19936 3.880278,-0.77605 0.917155,-4.51523 -0.846605,-3.03367 -2.398718,-1.83432 -3.174772,-10.37092 -22.082303,-12.628539 -8.466059,2.892571" style="fill:url(#linearGradient3807);fill-opacity:1;stroke:none"/>
        <path id="path3885" d="m 78.026164,119.01415 c 0,0 -1.715949,2.02185 -3.220916,3.09795 -1.38914,0.99328 -4.884809,1.36134 -4.884809,1.36134 0,0 1.866098,-0.60126 3.66184,-2.4687 2.001885,-2.08182 0.181945,-3.45713 0.181945,-3.45713 0,0 -1.735118,1.54789 -2.562523,1.76173 -2.933145,0.75806 -3.443389,-1.20118 -3.443389,-1.20118 0,0 2.504904,-1.67569 3.363311,-2.80276 2.016314,-2.64739 0.800787,-4.80473 0.800787,-4.80473 0,0 -2.053695,1.67576 -3.203151,2.32228 -3.518187,1.97886 -4.867046,0.86311 -4.867046,0.86311 0,0 1.266499,-0.70229 2.224443,-3.58578 0.674474,-2.03023 0.800789,-4.08402 0.800789,-4.08402 0,0 -2.31448,2.2795 -3.523468,3.36331 -2.447901,2.19444 -7.042911,1.92189 -7.042911,1.92189 0,0 1.670058,-0.36172 2.910316,-2.56086 1.93807,-3.43645 1.121244,-4.20439 1.009522,-4.08568 0,0 -3.279486,3.11293 -5.125045,4.40433 -4.8944,3.42478 -7.527411,2.40237 -7.527411,2.40237 0,0 1.899662,-1.56722 2.712966,-2.58598 1.182001,-1.48061 0.890582,-3.33986 0.890582,-3.33986 0,0 -2.569295,2.76906 -3.923863,4.08402 -2.707593,2.62844 -7.44733,3.44339 -7.44733,3.44339 0,0 2.827706,-1.81562 3.703055,-3.16027 0.705812,-1.08421 1.101674,-3.88666 1.101674,-3.88666 0,0 -3.272211,3.64159 -4.740056,4.94712 -2.369719,2.10767 -7.11161,4.98265 -7.11161,4.98265 0,0 -0.585699,-0.51196 -0.653189,-2.51277 -0.07687,-2.27883 1.373899,-2.69235 1.373899,-2.69235 0,0 -2.780979,1.46503 -3.796874,2.61914 -1.846108,2.08883 -1.890328,4.85969 -0.527381,7.39071 l 0.640629,2.39669 -3.052523,-0.64449 c -5.360849,-15.2766 -4.045053,-27.771759 7.777173,-36.426331 4.64005,-3.089244 7.598131,-4.715128 11.821805,-5.198173 4.223673,-0.483045 6.417111,-0.109938 6.417111,-0.109938 0,0 0.564376,0.155256 0.274598,-1.433714 -0.289776,-1.588969 -1.630262,-2.350872 -1.630262,-2.350872 l 3.536849,2.446155 c 0,0 2.536942,1.892184 3.923861,2.642601 1.63075,0.882346 1.307375,0.194223 5.125045,2.162129 3.81767,1.967906 12.309648,10.313312 13.853637,17.617343 1.543989,7.30403 0.17792,17.16199 0.17792,17.16199 z" style="fill:#003c5e;fill-opacity:1;stroke:#003c5e;stroke-width:0.78968239;stroke-linecap:round;stroke-linejoin:round;stroke-miterlimit:4;stroke-dasharray:none;stroke-opacity:1"/>
        <path style="fill:none;stroke:#003c5e;stroke-width:3;stroke-linecap:round;stroke-linejoin:round;stroke-miterlimit:4;stroke-dasharray:none;stroke-opacity:1" d="m 74.390243,121.85268 c 0,0 0.838244,-2.61898 2.789267,-2.66748 1.527062,-0.038 3.647691,1.84598 3.536959,4.82961 -0.105464,2.84177 -0.918317,5.27426 -3.603545,5.2852 -2.928015,0.012 -3.203156,-2.72268 -3.203156,-2.72268 0,0 1.231054,9.4691 -3.443388,17.41715 -1.34672,2.28986 -4.325853,4.95768 -8.47327,7.36463 -3.70372,2.14944 -9.353962,2.25623 -11.189662,2.26027 -2.060252,0.005 -6.877518,0.0386 -10.840401,-2.03377 -3.962884,-2.0724 -6.673556,-5.30127 -8.020277,-7.59113 -4.674442,-7.94805 -3.443388,-17.41715 -3.443388,-17.41715 0,0 -0.275141,2.73463 -3.203155,2.72268 -2.685228,-0.0109 -3.498082,-2.44343 -3.603548,-5.2852 -0.110729,-2.98363 2.0099,-4.86757 3.536962,-4.82961 1.951023,0.0485 2.789267,2.66748 2.789267,2.66748" id="path3982"/>
        <circle r="9.4650774" cy="527.48065" cx="232.32462" transform="matrix(0.1974206,0,0,0.1974206,-2.4791299,12.709678)" id="path3986" style="fill:#003c5e;fill-opacity:1;stroke:#003c5e;stroke-width:6;stroke-linejoin:round;stroke-miterlimit:4;stroke-dasharray:none;stroke-opacity:1"/>
        <circle r="9.4650774" cy="527.48065" cx="232.32462" style="fill:#003c5e;fill-opacity:1;stroke:#003c5e;stroke-width:6;stroke-linejoin:round;stroke-miterlimit:4;stroke-dasharray:none;stroke-opacity:1" id="path3990" transform="matrix(0.1974206,0,0,0.1974206,11.340312,12.709678)"/>
        <path transform="matrix(0.21425353,0,0,0.37769248,46.797374,-17.684294)" d="m 60.232306,390.0936 a 45.030819,30.689795 0 0 1 -22.51541,26.57814 45.030819,30.689795 0 0 1 -45.0308191,0 45.030819,30.689795 0 0 1 -22.5154079,-26.57814" id="path4004" style="fill:none;stroke:#003c5e;stroke-width:10.54600811;stroke-linecap:round;stroke-linejoin:round;stroke-miterlimit:4;stroke-dasharray:none;stroke-opacity:1"/>
      </g>
    </g>
    <text id="text3181" y="513.4613" x="514.60034" style="font-style:normal;font-weight:normal;font-size:40px;line-height:125%;font-family:Sans;letter-spacing:0px;word-spacing:0px;fill:#000000;fill-opacity:1;stroke:none" xml:space="preserve"><tspan y="513.4613" x="514.60034" id="tspan3183"/></text>
    <g id="text3185" style="font-style:italic;font-weight:bold;font-size:40px;line-height:125%;font-family:Sans;-inkscape-font-specification:'PilGi Bold';letter-spacing:0px;word-spacing:0px;fill:#000000;fill-opacity:1;stroke:none">
      <path id="path4210" style="font-style:normal;font-variant:normal;font-weight:bold;font-stretch:normal;font-size:72px;font-family:Pacifico;-inkscape-font-specification:Pacifico;fill:#ffffff" d="m 130.12537,132.21622 c -2.15625,0 -4.05468,-0.39844 -5.69531,-1.19532 -1.61719,-0.79687 -2.97656,-1.86328 -4.07812,-3.19921 -1.10157,-1.33594 -1.9336,-2.88282 -2.4961,-4.64063 -0.5625,-1.75781 -0.84375,-3.58594 -0.84375,-5.48437 0,-1.35938 0.14063,-2.77735 0.42188,-4.25391 0.28125,-1.47656 0.6914,-2.91797 1.23047,-4.32422 0.5625,-1.42969 1.24219,-2.78906 2.03906,-4.07812 0.82031,-1.28907 1.75781,-2.41407 2.8125,-3.375 1.07813,-0.98438 2.27344,-1.757819 3.58594,-2.320317 1.3125,-0.585937 2.75391,-0.878906 4.32422,-0.878906 1.33593,0 2.5664,0.210938 3.6914,0.632813 1.14844,0.398437 2.1211,0.96094 2.91797,1.6875 0.82031,0.72656 1.45313,1.59375 1.89844,2.60156 0.46875,0.98437 0.70312,2.05078 0.70312,3.19922 0,0.79687 -0.10547,1.58203 -0.3164,2.35547 -0.21094,0.77344 -0.52735,1.47656 -0.94922,2.10937 -0.39844,0.60938 -0.89063,1.10157 -1.47656,1.47657 -0.58594,0.375 -1.24219,0.5625 -1.96875,0.5625 -1.10157,0 -1.82813,-0.29297 -2.17969,-0.87891 -0.32813,-0.58594 -0.49219,-1.39453 -0.49219,-2.42578 0,-0.42187 0.0117,-0.86719 0.0352,-1.33594 0.0469,-0.46875 0.0703,-0.89062 0.0703,-1.26562 0,-0.5625 -0.0586,-1.03125 -0.17578,-1.40625 -0.11719,-0.375 -0.375,-0.5625 -0.77344,-0.5625 -0.96094,0 -1.78125,0.23437 -2.46094,0.70312 -0.67969,0.44531 -1.26562,1.04297 -1.75781,1.79297 -0.46875,0.72656 -0.84375,1.55859 -1.125,2.49609 -0.28125,0.91407 -0.5039,1.82813 -0.66797,2.74219 -0.16406,0.91407 -0.26953,1.79297 -0.3164,2.63672 -0.0469,0.82031 -0.0703,1.51172 -0.0703,2.07422 0,0.84375 0.0703,1.72265 0.21094,2.63672 0.16406,0.91406 0.45703,1.75781 0.87891,2.53125 0.42187,0.75 0.99609,1.38281 1.72265,1.89844 0.72657,0.49219 1.66407,0.73828 2.8125,0.73828 1.125,0 2.70438,-0.95802 4.06376,-1.63771 0.93789,-0.59072 2.12866,-1.44154 3.71283,-2.9739 0.93323,-0.6613 2.72341,-1.25948 3.9656,-2.52511 1.24219,-1.26563 2.30859,-2.46094 3.19922,-3.58594 l 2.42578,4.07813 c -1.75781,2.50781 -3.65625,4.74609 -5.69531,6.71484 -0.86719,0.84375 -1.81641,1.66406 -2.84766,2.46094 -1.00781,0.79687 -2.07422,1.51172 -3.19922,2.14453 -1.10156,0.60937 -2.26172,1.11328 -3.48047,1.51172 -1.19531,0.375 -2.41406,0.5625 -3.65625,0.5625 z"/>
      <path id="path4212" style="font-style:normal;font-variant:normal;font-weight:bold;font-stretch:normal;font-size:72px;font-family:Pacifico;-inkscape-font-specification:Pacifico;fill:#ffffff" d="m 142.01209,118.71622 q 1.96875,-1.6875 3.19922,-2.8125 1.23047,-1.125 2.10938,-2.03907 0.8789,-0.94921 1.58203,-1.89843 0.73828,-0.94922 1.72265,-2.25 0.98438,-1.30078 2.39063,-3.16407 1.40625,-1.89843 3.65625,-4.71093 0.45703,-0.63282 1.01953,-1.23047 0.5625,-0.59766 1.23047,-1.054689 0.70312,-0.492188 1.51172,-0.773438 0.84375,-0.316406 1.86328,-0.316406 1.6875,0 2.60156,0.386719 0.91406,0.351562 1.33594,0.878906 0.42187,0.527348 0.49219,1.124998 0.0703,0.5625 0.0703,0.98438 0,0.84375 -0.66797,1.86328 -0.66797,1.01953 -1.47656,1.96875 -0.8086,0.94922 -1.54688,1.75781 -0.70312,0.77344 -0.80859,1.16016 0,1.08984 0.14062,2.0039 0.17579,0.87891 0.42188,1.75782 0.28125,0.84375 0.5625,1.82812 0.28125,0.94922 0.52734,2.21484 0.28125,1.26563 0.42188,2.91797 0.17578,1.65235 0.17578,3.90235 1.26562,-0.84375 2.70703,-1.51172 1.47656,-0.70313 3.05859,-1.44141 1.58204,-0.73828 3.23438,-1.61719 1.6875,-0.91406 3.375,-2.17968 l 0.0352,7.875 q -2.17969,1.6875 -5.0625,3.16406 -2.84766,1.47656 -6.01172,2.60156 -3.12891,1.125 -6.36328,1.79297 -3.19922,0.63281 -6.08204,0.63281 -2.07421,0 -3.86718,-0.38672 -1.79297,-0.38671 -3.16407,-1.19531 -1.33593,-0.84375 -2.17968,-2.17969 -0.84375,-1.33593 -1.01953,-3.23437 -0.49219,0.10547 -0.98438,0.14062 -0.45703,0.0352 -0.91406,0.0352 -0.5625,0 -1.05469,-0.0352 -0.49219,-0.0352 -0.84375,-0.24609 -0.35156,-0.24609 -0.5625,-0.73828 -0.21094,-0.52734 -0.21094,-1.47656 0,-0.84375 0.42188,-1.54688 0.42187,-0.73828 0.98437,-1.30078 0.5625,-0.5625 1.125,-0.98437 0.5625,-0.42188 0.84375,-0.66797 z m 4.5,4.5 q 0.42188,0 0.91407,0.52734 0.52734,0.52734 1.19531,1.16016 0.66797,0.63281 1.54687,1.16015 0.87891,0.52735 2.00391,0.52735 1.37109,0 2.25,-0.45703 0.91406,-0.45704 1.44141,-1.19532 0.52734,-0.77343 0.73828,-1.75781 0.21093,-1.01953 0.21093,-2.10937 0,-0.94922 -0.14062,-1.9336 -0.10547,-0.98437 -0.31641,-1.86328 -0.17578,-0.91406 -0.42187,-1.6875 -0.21094,-0.80859 -0.38672,-1.37109 l -9.03516,9 z"/>
      <path id="path4214" style="font-style:normal;font-variant:normal;font-weight:bold;font-stretch:normal;font-size:72px;font-family:Pacifico;-inkscape-font-specification:Pacifico;fill:#ffffff" d="m 210.28553,123.60294 q -0.80859,1.125 -2.17969,2.63671 -1.33593,1.51172 -3.02343,2.88282 -1.6875,1.37109 -3.6211,2.32031 -1.93359,0.94922 -3.86719,0.94922 -2.32031,0 -3.86718,-1.47656 -1.54688,-1.51172 -2.67188,-4.35938 -0.84375,0.98438 -2.07422,2.00391 -1.23047,1.01953 -2.70703,1.86328 -1.4414,0.80859 -3.02344,1.33594 -1.58203,0.52734 -3.16406,0.52734 -1.6875,0 -3.30469,-0.66797 -1.58203,-0.70312 -2.8125,-1.96875 -1.23046,-1.30078 -1.96875,-3.12891 -0.73828,-1.86328 -0.73828,-4.18359 0,-2.63672 0.73828,-5.41406 0.73829,-2.77735 2.03907,-5.41406 1.30078,-2.67188 3.05859,-5.02735 1.79297,-2.35547 3.90234,-4.11328 2.10938,-1.75781 4.42969,-2.777343 2.35547,-1.054687 4.78125,-1.054687 0.8086,0 1.26563,0.316406 0.45703,0.316406 0.73828,0.738281 0.3164,0.386719 0.59765,0.773433 0.28125,0.38672 0.70313,0.5625 0.42187,0.17579 0.84375,0.2461 0.45703,0.0352 0.91406,0.0352 0.38672,0 0.77344,0 0.42187,-0.0352 0.80859,-0.0352 0.52735,0 0.98438,0.10547 0.45703,0.10547 0.80859,0.45703 0.35156,0.35156 0.52735,0.98437 0.21093,0.63282 0.21093,1.72266 0,1.6875 -0.35156,3.76172 -0.35156,2.03906 -0.77344,4.21875 -0.42187,2.14453 -0.77343,4.32422 -0.35157,2.14453 -0.35157,4.07812 0,1.65235 0.28125,2.60156 0.31641,0.91407 1.30078,0.91407 0.73829,0 1.54688,-0.35157 0.80859,-0.38671 1.61719,-0.98437 0.84375,-0.59766 1.65234,-1.33594 0.84375,-0.77344 1.58203,-1.58203 1.72266,-1.89844 3.48047,-4.28906 l 1.6875,7.80469 z m -30.02344,-2.77735 q 0,0.87891 0.10547,1.72266 0.14063,0.80859 0.45703,1.47656 0.31641,0.63281 0.84375,1.05469 0.52735,0.38672 1.33594,0.38672 1.30078,0 2.35547,-1.125 1.05469,-1.125 1.82812,-2.70703 0.77344,-1.58204 1.23047,-3.26954 0.49219,-1.6875 0.63282,-2.8125 l 2.14453,-10.33593 q -1.44141,0 -2.8125,0.73828 -1.3711,0.70312 -2.60157,1.93359 -1.19531,1.23047 -2.21484,2.8125 -1.01953,1.58203 -1.75781,3.33985 -0.73828,1.72265 -1.16016,3.48046 -0.38672,1.75782 -0.38672,3.30469 z"/>
      <path id="path4216" style="font-style:normal;font-variant:normal;font-weight:bold;font-stretch:normal;font-size:72px;font-family:Pacifico;-inkscape-font-specification:Pacifico;fill:#ffffff" d="m 232.43397,100.75137 q 0,0.94922 -0.21094,2.60157 -0.21094,1.61718 -0.5625,3.58593 -0.31641,1.9336 -0.70312,4.00782 -0.38672,2.07421 -0.73829,3.86718 -0.3164,1.79297 -0.52734,3.16407 -0.21094,1.33593 -0.21094,1.86328 0,0.98437 0.0352,1.82812 0.0352,0.8086 0.21094,1.44141 0.17578,0.59765 0.52734,0.94922 0.38672,0.3164 1.08984,0.3164 0.77344,0 1.86329,-0.38672 1.125,-0.38671 2.35546,-1.01953 1.26563,-0.66797 2.56641,-1.47656 1.30078,-0.84375 2.46094,-1.75781 1.19531,-0.91406 2.14453,-1.79297 0.98437,-0.91406 1.58203,-1.6875 0,1.16016 0,2.10937 0.0352,0.94922 0.0352,1.82813 0,0.84375 0,1.75781 0.0351,0.91406 0.0351,2.03906 -0.77343,0.77344 -1.93359,1.65235 -1.125,0.8789 -2.53125,1.75781 -1.37109,0.87891 -2.95313,1.6875 -1.54687,0.80859 -3.1289,1.44141 -1.58203,0.59765 -3.12891,0.98437 -1.54687,0.35156 -2.88281,0.35156 -1.33594,0 -2.28516,-0.52734 -0.94922,-0.52734 -1.65234,-1.47656 -0.66797,-0.94922 -1.16016,-2.25 -0.45703,-1.33594 -0.80859,-2.95313 -1.26563,1.65235 -2.67188,3.0586 -1.40625,1.37109 -2.88281,2.39062 -1.4414,1.01953 -2.95312,1.61719 -1.47657,0.5625 -2.88282,0.5625 -1.16015,0 -2.17968,-0.38672 -1.01953,-0.38672 -1.82813,-1.30078 -0.77344,-0.91406 -1.23047,-2.39063 -0.45703,-1.51171 -0.45703,-3.72656 0,-2.70703 0.63281,-6.89062 0.66797,-4.1836 1.61719,-9.5625 0.0703,-0.52735 0.2461,-1.40625 0.21093,-0.91407 0.52734,-1.96875 0.35156,-1.05469 0.84375,-2.14453 0.49219,-1.08985 1.16016,-1.96875 0.66796,-0.87891 1.54687,-1.44141 0.91406,-0.5625 2.03906,-0.597657 1.86328,0.07031 2.67188,0.492188 0.80859,0.386719 0.80859,0.984375 -0.3164,1.863284 -0.70312,4.148434 -0.35157,2.28516 -0.73828,4.60547 -0.38672,2.32031 -0.73829,4.53516 -0.35156,2.17969 -0.63281,3.90234 -0.28125,1.72266 -0.45703,2.77735 -0.14062,1.05468 -0.14062,1.08984 0,0.63281 0.10546,1.23047 0.14063,0.5625 0.38672,1.01953 0.2461,0.45703 0.63282,0.73828 0.38671,0.28125 0.91406,0.28125 0.77344,0 1.58203,-0.38672 0.80859,-0.42187 1.51172,-1.16015 0.73828,-0.77344 1.30078,-1.86329 0.5625,-1.125 0.84375,-2.53125 l 3.48047,-17.85937 q 0.17578,-0.84375 1.40625,-1.40625 1.26562,-0.597657 2.84765,-0.597657 1.79297,0 2.84766,0.632813 1.05469,0.632812 1.05469,1.617184 z"/>
      <path id="path4218" style="font-style:normal;font-variant:normal;font-weight:bold;font-stretch:normal;font-size:72px;font-family:Pacifico;-inkscape-font-specification:Pacifico;fill:#ffffff" d="m 269.27772,124.34122 q -3.375,1.96875 -6.01172,3.44531 -2.63672,1.47656 -4.71094,2.46094 -2.03906,0.98437 -3.65625,1.47656 -1.58203,0.49219 -2.88281,0.49219 -2.67188,0 -4.71094,-1.61719 -2.03906,-1.61719 -3.41015,-4.64063 -1.3711,-3.05859 -2.07422,-7.38281 -0.66797,-4.32422 -0.66797,-9.73828 0,-2.10937 0.17578,-4.5 0.17578,-2.39062 0.49219,-4.746093 -1.05469,-0.140625 -1.65235,-0.246094 -0.5625,-0.140625 -1.23047,-0.246093 -0.63281,-0.140625 -1.65234,-0.28125 -0.98437,-0.140625 -2.88281,-0.351563 -0.84375,-0.105469 -1.30078,-0.386719 -0.45703,-0.316406 -0.66797,-0.703125 -0.21094,-0.421875 -0.2461,-0.84375 -0.0352,-0.457031 -0.0352,-0.773437 0,-0.703125 0.70312,-1.054688 0.66797,-0.386718 1.75782,-0.5625 1.05468,-0.175781 2.32031,-0.175781 1.30078,-0.03516 2.46094,0 1.19531,0.03516 2.10937,0.07031 0.94922,0 1.30078,-0.07031 0.94922,-4.746094 2.39063,-9.175781 1.47656,-4.464844 3.26953,-7.910156 1.82812,-3.480469 3.97265,-5.554688 2.14454,-2.109375 4.5,-2.109375 1.51172,0 2.74219,0.84375 1.26563,0.84375 2.14453,2.25 0.87891,1.40625 1.33594,3.304688 0.49219,1.863281 0.49219,3.902343 0,1.722657 -0.49219,3.65625 -0.49219,1.898438 -1.33594,3.902344 -0.84375,1.96875 -2.0039,4.007813 -1.125,2.039062 -2.39063,4.042968 0.31641,0.03516 1.05469,0.07031 0.73828,0 1.6875,0.03516 0.98437,0.03516 2.10937,0.105469 1.125,0.03516 2.17969,0.07031 1.05469,0.03516 1.96875,0.07031 0.91406,0.03516 1.51172,0.07031 0.70313,0.03516 1.01953,0.703125 0.31641,0.667969 0.31641,1.6875 0,1.230469 -0.70313,2.003907 -0.70312,0.773436 -1.54687,0.773436 l -13.5,0 q -1.01953,1.40625 -2.07422,2.77734 -1.01953,1.33594 -1.89844,2.42578 -0.14062,2.17969 -0.24609,4.28906 -0.0352,0.91407 -0.0703,1.89844 -0.0352,0.94922 -0.0703,1.89844 -0.0351,0.94922 -0.0703,1.82812 0,0.87891 0,1.61719 0,1.89844 0.35156,3.19922 0.35157,1.30078 1.01953,2.14453 0.66797,0.8086 1.61719,1.19531 0.98438,0.35157 2.17969,0.35157 0.73828,0 1.82812,-0.35157 1.125,-0.35156 2.42579,-0.94921 1.33593,-0.63282 2.77734,-1.47657 1.47656,-0.84375 2.88281,-1.82812 1.44141,-1.01953 2.74219,-2.10938 1.30078,-1.125 2.35547,-2.28515 l 0,9 z m -11.25,-44.507815 q 0,-0.386719 -0.0703,-0.84375 -0.0352,-0.492188 -0.21094,-0.914063 -0.17578,-0.421875 -0.5625,-0.703125 -0.35156,-0.28125 -1.01953,-0.28125 -0.91407,0 -1.86328,1.617188 -0.91407,1.617187 -1.79297,4.148437 -0.84375,2.496094 -1.61719,5.519531 -0.73828,3.023438 -1.37109,5.871094 0.52734,0.07031 1.05468,0.140625 0.52735,0.03516 1.08985,0.105469 1.05468,-1.792969 2.17968,-3.867188 1.16016,-2.109375 2.07422,-4.113281 0.91407,-2.039062 1.51172,-3.796875 0.59766,-1.757812 0.59766,-2.882812 z"/>
      <path id="path4220" style="font-style:normal;font-variant:normal;font-weight:bold;font-stretch:normal;font-size:72px;font-family:Pacifico;-inkscape-font-specification:Pacifico;fill:#ffffff" d="m 280.28162,110.34903 q 1.44141,-1.89844 3.23438,-4.07813 1.79297,-2.17968 3.72656,-4.04296 1.9336,-1.89844 3.83203,-3.12891 1.9336,-1.265625 3.6211,-1.265625 0.42187,0 0.94922,0.175781 0.52734,0.140625 0.98437,0.5625 0.49219,0.421875 0.80859,1.195312 0.31641,0.738282 0.31641,1.933592 0,2.39063 -0.66797,4.67578 -0.66797,2.25 -1.47656,4.53516 -0.77344,2.25 -1.44141,4.60547 -0.63281,2.35547 -0.63281,4.92187 0,1.40625 0.42188,2.25 0.42187,0.84375 1.08984,0.84375 0.84375,0 1.79297,-0.35156 0.94922,-0.35156 1.89844,-0.91406 0.94921,-0.5625 1.86328,-1.26563 0.91406,-0.73828 1.72265,-1.51172 1.9336,-1.79296 3.79688,-4.07812 l 0.59765,9.35156 q -0.63281,0.49219 -1.61718,1.23047 -0.94922,0.73828 -2.14453,1.58203 -1.16016,0.8086 -2.53125,1.65235 -1.3711,0.84375 -2.77735,1.51171 -1.37109,0.63282 -2.77734,1.05469 -1.3711,0.42188 -2.63672,0.42188 -1.93359,0 -3.375,-1.01953 -1.40625,-1.05469 -2.32031,-2.63672 -0.91407,-1.61719 -1.3711,-3.51563 -0.45703,-1.89844 -0.45703,-3.58594 0,-1.125 0.28125,-2.49609 0.31641,-1.40625 0.73828,-2.8125 0.45703,-1.40625 0.98438,-2.74219 0.5625,-1.33593 1.01953,-2.39062 0.49219,-1.05469 0.84375,-1.72266 0.35156,-0.66797 0.45703,-0.77344 l -0.73828,-0.10546 q -0.59766,0.38671 -2.03906,1.96875 -1.40625,1.58203 -3.19922,4.00781 -1.79297,2.39062 -3.72656,5.41406 -1.89844,2.98828 -3.44532,6.1875 -0.77343,1.58203 -1.26562,2.77734 -0.49219,1.16016 -0.98438,1.9336 -0.45703,0.73828 -1.01953,1.125 -0.5625,0.38672 -1.4414,0.38672 -1.16016,0 -1.82813,-0.66797 -0.66797,-0.66797 -1.01953,-1.75781 -0.35156,-1.125 -0.45703,-2.53125 -0.10547,-1.40625 -0.10547,-2.88282 0,-2.35547 0.0352,-6.15234 0.0703,-3.83203 0.35156,-8.47266 0.28125,-4.64062 0.80859,-9.773434 0.52735,-5.132813 1.47656,-10.125 0.98438,-5.027344 2.42579,-9.5625 1.47656,-4.570313 3.55078,-8.015625 2.10937,-3.480469 4.92187,-5.519531 2.8125,-2.039063 6.46875,-2.039063 1.89844,0 3.09375,0.5625 1.23047,0.5625 1.9336,1.582031 0.73828,1.019532 1.01953,2.460938 0.28125,1.40625 0.28125,3.164062 0,2.601563 -0.73828,5.765625 -0.73829,3.164063 -1.96875,6.574219 -1.19532,3.410156 -2.74219,6.925781 -1.54688,3.480469 -3.16406,6.785157 -1.61719,3.26953 -3.19922,6.1875 -1.54688,2.91797 -2.74219,5.13281 l 0.70312,0.49219 z m 3.12891,-21.726563 q 2.07422,-5.378906 2.98828,-9.070312 0.94922,-3.691407 0.94922,-5.449219 0,-2.671875 -0.70312,-2.671875 -0.91407,0 -2.70704,2.988281 -1.79296,2.988281 -4.21875,8.683594 -0.59765,1.933594 -1.125,4.007812 -0.49218,2.074219 -0.91406,4.148438 -0.38672,2.039062 -0.73828,4.042969 -0.31641,1.96875 -0.5625,3.761718 -0.59766,4.183597 -0.91406,8.191407 0.94922,-2.21484 2.07422,-4.81641 1.125,-2.601559 2.21484,-5.132809 1.08984,-2.566406 2.03906,-4.816406 0.98438,-2.285157 1.61719,-3.867188 z"/>
      <path id="path4222" style="font-style:normal;font-variant:normal;font-weight:bold;font-stretch:normal;font-size:72px;font-family:Pacifico;-inkscape-font-specification:Pacifico;fill:#ffffff" d="m 325.73866,105.88419 q 1.01953,2.03906 1.51171,4.32421 0.52735,2.25 0.52735,4.32422 0,2.07422 -0.45703,4.1836 -0.45703,2.10937 -1.33594,4.07812 -0.84375,1.96875 -2.10938,3.69141 -1.23046,1.72265 -2.84765,2.98828 -1.58203,1.26562 -3.48047,2.00391 -1.89844,0.73828 -4.04297,0.73828 -3.09375,0 -5.30859,-1.33594 -2.17969,-1.37109 -3.58594,-3.55078 -1.40625,-2.17969 -2.07422,-4.92188 -0.63281,-2.74218 -0.63281,-5.55468 0,-3.86719 1.16015,-7.20704 1.16016,-3.375 3.30469,-5.83593 2.17969,-2.4961 5.3086,-3.902347 3.1289,-1.441406 7.03125,-1.441406 3.33984,0 6.25781,1.054688 2.91797,1.019535 5.44922,2.777345 2.5664,1.72265 4.74609,3.97265 2.21484,2.25 4.11328,4.64063 l -0.66797,4.95703 q -0.94922,-1.26562 -2.5664,-2.74219 -1.61719,-1.47656 -3.44532,-2.88281 -1.79296,-1.40625 -3.55078,-2.63672 -1.75781,-1.26562 -3.02343,-2.10937 l -0.28125,0.38672 z m -10.86329,19.58203 q 1.19532,0 2.32032,-1.19532 1.125,-1.23046 1.96875,-3.05859 0.84375,-1.86328 1.33593,-4.07812 0.52735,-2.25 0.52735,-4.28907 0,-1.61718 -0.2461,-2.98828 -0.24609,-1.40625 -0.73828,-2.42578 -0.49218,-1.01953 -1.26562,-1.61719 -0.77344,-0.59765 -1.86328,-0.59765 -1.44141,0 -2.74219,1.23047 -1.30078,1.23046 -2.28516,3.16406 -0.98437,1.89844 -1.54687,4.21875 -0.5625,2.32031 -0.5625,4.46484 0,1.47656 0.28125,2.77735 0.28125,1.30078 0.8789,2.28515 0.59766,0.94922 1.58204,1.54688 0.98437,0.5625 2.35546,0.5625 z"/>
      <path id="path4224" style="font-style:normal;font-variant:normal;font-weight:bold;font-stretch:normal;font-size:72px;font-family:Pacifico;-inkscape-font-specification:Pacifico;fill:#ffffff" d="m 334.80897,124.86856 c 0,-1.03125 0.0586,-2.22656 0.17578,-3.58594 0.11719,-1.38281 0.26953,-2.83594 0.45703,-4.35937 0.21094,-1.52344 0.44532,-3.07032 0.70313,-4.64063 0.28125,-1.59375 0.57421,-3.10546 0.8789,-4.53515 0.30469,-1.42969 0.60937,-2.74219 0.91406,-3.9375 0.30469,-1.19531 0.60938,-2.17969 0.91407,-2.95313 0.1875,-0.51563 0.375,-0.925782 0.5625,-1.230467 0.1875,-0.304687 0.39844,-0.539062 0.63281,-0.703125 0.25781,-0.1875 0.5625,-0.304687 0.91406,-0.351562 0.375,-0.07031 0.83203,-0.105469 1.3711,-0.105469 0.60937,0 1.07812,0.03516 1.40625,0.105469 0.35156,0.04687 0.60937,0.187498 0.77343,0.421875 0.16407,0.210937 0.25782,0.527344 0.28125,0.949219 0.0469,0.42187 0.0703,0.99609 0.0703,1.72266 l 0,3.16406 c 0,1.21875 0.0234,2.42578 0.0703,3.62109 l 0.38672,0 c 0.46875,-0.9375 0.99609,-1.98047 1.58203,-3.1289 0.58593,-1.17188 1.26562,-2.26173 2.03906,-3.26954 0.77344,-1.00781 1.65235,-1.85156 2.63672,-2.531245 0.98437,-0.703125 2.12109,-1.054688 3.41016,-1.054688 0.44531,0 0.8789,0.08203 1.30078,0.246094 0.42187,0.140625 0.78515,0.351562 1.08984,0.632812 0.32813,0.28125 0.58594,0.632812 0.77344,1.054687 0.1875,0.39844 0.28125,0.85547 0.28125,1.37109 0,0.39844 -0.0586,0.96094 -0.17578,1.6875 -0.11719,0.70313 -0.24609,1.45313 -0.38672,2.25 -0.14063,0.77344 -0.26953,1.53516 -0.38672,2.28516 -0.11719,0.72656 -0.17578,1.33594 -0.17578,1.82813 0,0.84375 -0.0532,1.73615 0.11089,2.29865 0.27023,1.36339 0.87691,2.37413 1.18144,3.01533 0.33804,0.69495 1.47754,2.26057 2.44742,2.67969 0.96816,0.41838 2.99651,-0.0229 5.10306,-1.43605 1.04597,-0.70167 1.89937,-1.19888 2.80983,-1.98762 0.59433,0.54552 0.62857,-1.6725 0.30048,3.44562 -0.60937,0.39844 -1.30078,0.84375 -2.07422,1.33594 -0.77343,0.49219 -1.60546,0.96094 -2.49609,1.40625 -0.86719,0.42187 -1.78125,0.78515 -2.74219,1.08984 -0.9375,0.28125 1.58645,3.9639 -0.94041,3.73538 -1.75067,-0.15832 -5.11818,-2.69387 -6.3677,-3.96829 -1.05108,-1.24032 -1.7622,-2.06396 -2.39501,-3.2124 -0.63281,-1.17187 -1.10156,-2.47265 -1.40625,-3.90234 -0.30469,-1.45313 -0.55078,-2.91797 -0.73828,-4.39454 l -0.5625,0 -6.29297,17.54297 c -0.32813,0.91407 -0.64453,1.67579 -0.94922,2.28516 -0.28125,0.58594 -0.57422,1.06641 -0.87891,1.44141 -0.30469,0.375 -0.63281,0.64453 -0.98437,0.80859 -0.35157,0.14063 -0.73829,0.21094 -1.16016,0.21094 -0.96093,0 -1.73437,-0.19922 -2.32031,-0.59766 -0.58594,-0.42187 -1.04297,-0.97265 -1.37109,-1.65234 -0.30469,-0.70313 -0.51563,-1.48828 -0.63282,-2.35547 -0.0937,-0.89063 -0.14062,-1.80469 -0.14062,-2.74219 z"/>
      <path id="path4226" style="font-style:normal;font-variant:normal;font-weight:bold;font-stretch:normal;font-size:72px;font-family:Pacifico;-inkscape-font-specification:Pacifico;fill:#ffffff" d="m 364.05897,118.71622 c 1.3125,-1.125 2.37891,-2.0625 3.19922,-2.8125 0.82031,-0.75 1.52344,-1.42969 2.10937,-2.03907 0.58594,-0.63281 1.11328,-1.26562 1.58203,-1.89843 0.49219,-0.63281 1.06641,-1.38281 1.72266,-2.25 0.65625,-0.86719 1.45312,-1.92188 2.39062,-3.16407 0.9375,-1.26562 2.15625,-2.83593 3.65625,-4.71093 0.30469,-0.42188 0.64454,-0.83204 1.01954,-1.23047 0.375,-0.39844 0.78515,-0.750003 1.23046,-1.054689 0.46875,-0.328125 0.97266,-0.585938 1.51172,-0.773438 0.5625,-0.210937 1.18359,-0.316406 1.86328,-0.316406 1.125,0 1.99219,0.128906 2.60157,0.386719 0.60937,0.234375 1.05468,0.527343 1.33593,0.878906 0.28125,0.351568 0.44532,0.726568 0.49219,1.124998 0.0469,0.375 0.0703,0.70313 0.0703,0.98438 0,0.5625 -0.22265,1.18359 -0.66796,1.86328 -0.44531,0.67969 -0.9375,1.33594 -1.47657,1.96875 -0.53906,0.63281 -1.05468,1.21875 -1.54687,1.75781 -0.46875,0.51563 -0.73829,0.90235 -0.8086,1.16016 0,0.72656 0.0469,1.39453 0.14063,2.0039 0.11719,0.58594 0.25781,1.17188 0.42187,1.75782 0.1875,0.5625 0.375,1.17187 0.5625,1.82812 0.1875,0.63281 0.36328,1.37109 0.52735,2.21484 0.1875,0.84375 0.32812,1.81641 0.42187,2.91797 0.11719,1.10157 0.17578,2.40235 0.17578,3.90235 -0.55824,2.2815 -0.89511,3.44244 -1.69294,4.45896 0,0 -1.946,2.67014 -3.41968,3.4994 -2.09015,1.01912 -4.07484,1.35804 -5.99671,1.35804 -1.38281,0 -2.67188,-0.12891 -3.86719,-0.38672 -1.19531,-0.25781 -2.25,-0.65624 -3.16406,-1.19531 -0.89063,-0.5625 -1.61719,-1.28906 -2.17969,-2.17969 -0.5625,-0.89062 -0.90234,-1.96874 -1.01953,-3.23437 -0.32813,0.0703 -0.65625,0.11719 -0.98437,0.14062 -0.30469,0.0235 -0.60938,0.0352 -0.91407,0.0352 -0.375,0 -0.72656,-0.0117 -1.05468,-0.0352 -0.32813,-0.0235 -0.66346,-0.0244 -0.89783,-0.16497 -1.51877,-0.50206 -0.7734,-0.53183 -0.91402,-0.85996 -0.14062,-0.35156 0.19466,-0.80319 0.19466,-1.436 0,-0.5625 0.14062,-1.07813 0.42187,-1.54688 0.28125,-0.49219 0.60938,-0.92578 0.98438,-1.30078 0.375,-0.375 0.75,-0.70312 1.125,-0.98437 0.375,-0.28125 0.65625,-0.50391 0.84375,-0.66797 z m 4.5,4.5 c 0.28125,0 0.58593,0.17578 0.91406,0.52734 0.35156,0.35156 0.75,0.73828 1.19531,1.16016 0.44531,0.42187 0.96094,0.80859 1.54688,1.16015 0.58593,0.35157 1.2539,0.52735 2.0039,0.52735 0.91407,0 1.66407,-0.15234 2.25,-0.45703 0.60938,-0.30469 1.08985,-0.70313 1.44141,-1.19532 0.35156,-0.51562 0.59765,-1.10156 0.73828,-1.75781 0.14063,-0.67969 0.21094,-1.38281 0.21094,-2.10937 0,-0.63281 -0.0469,-1.27735 -0.14063,-1.9336 -0.0703,-0.65625 -0.17577,-1.27734 -0.3164,-1.86328 -0.11719,-0.60937 -0.25781,-1.17187 -0.42188,-1.6875 -0.14062,-0.53906 -0.26953,-0.99609 -0.38672,-1.37109 z"/>
      <path id="path4228" style="font-style:normal;font-variant:normal;font-weight:bold;font-stretch:normal;font-size:72px;font-family:Pacifico;-inkscape-font-specification:Pacifico;fill:#ffffff" d="m 414.68397,125.50137 q 0,0.14063 -0.0352,0.70313 -0.0352,0.5625 -0.24609,1.30078 -0.17578,0.73828 -0.59766,1.58203 -0.38672,0.80859 -1.125,1.51172 -0.73828,0.70312 -1.86328,1.16016 -1.125,0.45703 -2.74219,0.45703 -1.30078,0 -2.35547,-0.31641 -1.05468,-0.35156 -1.82812,-1.01953 -0.73828,-0.70313 -1.16016,-1.75781 -0.42187,-1.08985 -0.42187,-2.60157 0,-1.26562 0.35156,-2.46093 0.38672,-1.23047 1.16016,-2.17969 0.77343,-0.94922 2.0039,-1.51172 1.23047,-0.5625 2.91797,-0.5625 2.91797,0 4.42969,1.47656 1.51172,1.47657 1.51172,4.21875 z"/>
      <path id="path4230" style="font-style:normal;font-variant:normal;font-weight:bold;font-stretch:normal;font-size:72px;font-family:Pacifico;-inkscape-font-specification:Pacifico;fill:#ffffff" d="m 420.30897,124.86856 q 0,-2.32031 0.28125,-5.34375 0.28125,-3.05859 0.70312,-6.1875 0.42188,-3.16406 0.94922,-6.08203 0.52735,-2.91797 1.01953,-4.99219 0.38672,-1.61719 1.47657,-2.707029 1.125,-1.089844 3.02343,-1.089844 1.89844,0 2.63672,1.160156 0.73828,1.160157 0.73828,3.093747 0,0.52735 -0.10547,1.44141 -0.10546,0.87891 -0.28125,1.96875 -0.14062,1.05469 -0.3164,2.21484 -0.17578,1.125 -0.35156,2.10938 -0.14063,0.94922 -0.2461,1.6875 -0.10547,0.70312 -0.10547,0.94922 l 0.70313,0 q 0.21094,-0.38672 0.66797,-1.23047 0.45703,-0.87891 1.05468,-2.00391 0.59766,-1.125 1.26563,-2.35547 0.70312,-1.26562 1.30078,-2.39062 0.59766,-1.16016 1.08984,-2.03906 0.49219,-0.87891 0.73829,-1.30079 1.125,-1.898433 2.5664,-2.601558 1.44141,-0.703125 3.19922,-0.703125 1.75781,0 2.77734,1.476563 1.05469,1.47656 1.05469,4.07812 0,0.38672 -0.17578,1.30079 -0.14062,0.91406 -0.38672,2.17968 -0.24609,1.26563 -0.5625,2.77735 -0.28125,1.51172 -0.52734,3.09375 -0.2461,1.58203 -0.42188,3.1289 -0.14062,1.54688 -0.14062,2.84766 0,2.17969 0.52734,3.58594 0.5625,1.40625 1.72266,1.40625 0.52734,0 1.19531,-0.31641 0.70313,-0.31641 1.47656,-0.80859 0.8086,-0.52735 1.61719,-1.19532 0.84375,-0.66796 1.65234,-1.37109 1.86329,-1.65234 3.90235,-3.72656 l 0.59765,7.875 -1.75781,1.33594 q -1.4414,1.08984 -2.95312,2.17968 -1.47657,1.08985 -3.09375,1.96875 -1.61719,0.84375 -3.375,1.40625 -1.75782,0.52735 -3.69141,0.52735 -1.93359,0 -3.26953,-2.77735 -1.30078,-2.8125 -1.30078,-8.1914 0,-2.10938 0.28125,-4.53516 0.28125,-2.46094 0.70312,-5.27344 l -0.5625,0 -9.21093,18.28125 q -0.70313,1.44141 -1.58204,1.96875 -0.8789,0.52735 -2.03906,0.52735 -1.4414,0 -2.32031,-0.59766 -0.87891,-0.63281 -1.37109,-1.65234 -0.45704,-1.05469 -0.63282,-2.35547 -0.14062,-1.33594 -0.14062,-2.74219 z"/>
      <path id="path4232" style="font-style:normal;font-variant:normal;font-weight:bold;font-stretch:normal;font-size:72px;font-family:Pacifico;-inkscape-font-specification:Pacifico;fill:#ffffff" d="m 464.81678,132.21622 c -2.20313,0 -4.13672,-0.39844 -5.80078,-1.19532 -1.64063,-0.79687 -3.01172,-1.86328 -4.11328,-3.19921 -1.10157,-1.35938 -1.9336,-2.91798 -2.4961,-4.67579 -0.53906,-1.78125 -0.80859,-3.64453 -0.80859,-5.58984 0,-1.3125 0.12891,-2.69531 0.38672,-4.14844 0.25781,-1.47656 0.64453,-2.91797 1.16016,-4.32422 0.53906,-1.40625 1.20703,-2.74218 2.0039,-4.00781 0.79687,-1.28906 1.72266,-2.41406 2.77735,-3.375 1.07812,-0.98437 2.27343,-1.75781 3.58593,-2.32031 1.33594,-0.585938 2.8125,-0.878907 4.42969,-0.878907 1.3125,0 2.53125,0.210938 3.65625,0.632813 1.125,0.421875 2.09766,1.019534 2.91797,1.792964 0.84375,0.75 1.5,1.66406 1.96875,2.74219 0.46875,1.07813 0.70312,2.28516 0.70312,3.6211 0,1.45312 -0.36328,2.90624 -1.08984,4.35937 -0.70313,1.45313 -1.6875,2.82422 -2.95312,4.11328 -1.26563,1.28907 -2.77735,2.4375 -4.53516,3.44531 -1.73437,1.00781 -3.62109,1.79297 -5.66016,2.35547 0.35157,0.63281 0.69141,1.16016 1.01953,1.58203 0.35157,0.42188 0.70313,0.75001 1.05469,0.98438 0.35157,0.23437 0.71485,0.39844 1.08985,0.49219 0.39843,0.0937 0.82031,0.14062 1.26562,0.14062 1.40625,0 2.88282,-0.28125 4.42969,-0.84375 1.57031,-0.5625 3.09375,-1.26562 4.57031,-2.10937 1.47656,-0.84375 2.87109,-1.75782 4.18359,-2.74219 1.94092,-1.52198 3.91114,-6.52738 4.82521,-7.418 l 3.04979,9.28128 c -2.29102,0.70458 -4.2539,4.01953 -6.57421,5.66016 -1.00781,0.70312 -2.09766,1.39453 -3.26954,2.07422 -1.14843,0.67969 -2.36718,1.28906 -3.65625,1.82812 -1.26562,0.51563 -2.58984,0.9375 -3.97265,1.26563 -1.35937,0.30469 -2.74219,0.45703 -4.14844,0.45703 z M 460.141,115.69278 c 0.84375,0 1.75781,-0.21094 2.74219,-0.63281 1.00781,-0.44531 1.93359,-1.00781 2.77734,-1.6875 0.86719,-0.67969 1.59375,-1.41797 2.17969,-2.21485 0.58593,-0.79687 0.8789,-1.57031 0.8789,-2.32031 0,-1.05469 -0.19922,-1.92187 -0.59765,-2.60156 -0.375,-0.67969 -0.84375,-1.01953 -1.40625,-1.01953 -1.00781,0 -1.875,0.1875 -2.60156,0.5625 -0.70313,0.375 -1.30078,0.86719 -1.79297,1.47656 -0.46875,0.58594 -0.85547,1.26563 -1.16016,2.03906 -0.28125,0.75 -0.5039,1.51172 -0.66797,2.28516 -0.14063,0.77343 -0.23438,1.52343 -0.28125,2.25 -0.0469,0.72656 -0.0703,1.34765 -0.0703,1.86328 z"/>
      <path id="path4234" style="font-style:normal;font-variant:normal;font-weight:bold;font-stretch:normal;font-size:72px;font-family:Pacifico;-inkscape-font-specification:Pacifico;fill:#ffffff" d="m 503.87537,127.78653 c -1.75781,0.98437 -3.32812,1.80469 -4.71093,2.46094 -1.35938,0.65625 -2.57813,1.14843 -3.65625,1.47656 -1.05469,0.32813 -2.01563,0.49219 -2.88282,0.49219 -1.78125,0 -3.35156,-0.53906 -4.71093,-1.61719 -1.35938,-1.07813 -2.4961,-2.625 -3.41016,-4.64063 -0.91406,-2.03906 -1.60547,-4.5 -2.07422,-7.38281 -0.44531,-2.88281 -0.66797,-6.12891 -0.66797,-9.73828 0,-1.40625 0.0586,-2.90625 0.17578,-4.5 0.11719,-1.59375 0.28126,-3.17578 0.49219,-4.746093 -0.70313,-0.09375 -1.25391,-0.175781 -1.65234,-0.246094 -0.375,-0.09375 -0.78516,-0.175781 -1.23047,-0.246093 -0.42187,-0.09375 -0.97265,-0.1875 -1.65234,-0.28125 -0.65625,-0.09375 -1.61719,-0.210938 -2.88282,-0.351563 -0.5625,-0.07031 -0.99609,-0.199219 -1.30078,-0.386719 -0.30469,-0.210937 -0.52734,-0.445312 -0.66797,-0.703125 -0.14062,-0.28125 -0.22265,-0.5625 -0.24609,-0.84375 -0.0235,-0.304687 -0.0352,-0.5625 -0.0352,-0.773437 0,-0.46875 0.23438,-0.820313 0.70313,-1.054688 0.44531,-0.257812 1.03125,-0.445312 1.75781,-0.5625 0.70313,-0.117187 1.47656,-0.175781 2.32031,-0.175781 0.86719,-0.02344 1.6875,-0.02344 2.46094,0 0.79687,0.02344 1.5,0.04688 2.10938,0.07031 0.63281,0 1.0664,-0.02344 1.30078,-0.07031 0.63281,-3.164063 1.42969,-6.222656 2.39062,-9.175781 0.98437,-2.976563 2.07422,-5.613281 3.26953,-7.910156 1.21875,-2.320313 2.54297,-4.171875 3.97266,-5.554688 1.42969,-1.40625 2.92969,-2.109375 4.5,-2.109375 1.00781,0 1.92188,0.28125 2.74219,0.84375 0.84375,0.5625 1.55859,1.3125 2.14453,2.25 0.58593,0.9375 1.03125,2.039063 1.33594,3.304688 0.32812,1.242187 0.49218,2.542968 0.49218,3.902343 0,1.148438 -0.16406,2.367188 -0.49218,3.65625 -0.32813,1.265625 -0.77344,2.566407 -1.33594,3.902344 -0.5625,1.3125 -1.23047,2.648438 -2.00391,4.007813 -0.75,1.359375 -1.54687,2.707031 -2.39062,4.042968 0.21093,0.02344 0.56249,0.04688 1.05468,0.07031 0.49219,0 1.05469,0.01172 1.6875,0.03516 0.65625,0.02344 1.35938,0.0586 2.10938,0.105469 0.75,0.02344 1.47656,0.04688 2.17969,0.07031 0.70312,0.02344 1.35937,0.04688 1.96875,0.07031 0.60937,0.02344 1.11328,0.04688 1.51172,0.07031 0.46875,0.02344 0.80859,0.257815 1.01953,0.703125 0.21093,0.445313 0.3164,1.007813 0.3164,1.6875 0,0.820313 -0.23437,1.488282 -0.70312,2.003907 -0.46875,0.515626 -0.98438,0.773436 -1.54688,0.773436 l -13.5,0 c -0.67969,0.9375 -1.37109,1.86328 -2.07422,2.77734 -0.67969,0.89063 -1.3125,1.69922 -1.89843,2.42578 -0.0937,1.45313 -0.17579,2.88282 -0.2461,4.28906 -0.0234,0.60938 -0.0468,1.2422 -0.0703,1.89844 -0.0235,0.63282 -0.0469,1.26563 -0.0703,1.89844 -0.0235,0.63282 -0.0469,1.24219 -0.0703,1.82812 l 0,1.61719 c 0,1.26563 0.11719,2.33204 0.35156,3.19922 0.23437,0.86719 0.57422,1.58203 1.01953,2.14453 0.44531,0.53907 0.98438,0.93751 1.61719,1.19531 0.65625,0.23438 1.38281,0.35157 2.17968,0.35157 0.49219,0 1.10157,-0.11719 1.82813,-0.35157 0.75,-0.23437 1.55859,-0.55077 2.42578,-0.94921 0.89063,-0.42188 1.81641,-0.91407 2.77734,-1.47657 0.98438,-0.5625 1.94532,-1.17187 2.88282,-1.82812 2.41346,-1.91462 3.36956,-2.83511 4.69775,-0.16696 l 0.34277,2.94429 c -0.87714,2.55659 -3.84956,4.09346 -5.95458,5.27346 z m -5.23828,-47.953125 c 0,-0.257813 -0.0234,-0.539063 -0.0703,-0.84375 -0.0235,-0.328125 -0.0938,-0.632813 -0.21094,-0.914063 -0.11719,-0.28125 -0.30469,-0.515625 -0.5625,-0.703125 -0.23437,-0.1875 -0.57422,-0.28125 -1.01953,-0.28125 -0.60937,0 -1.23047,0.539063 -1.86328,1.617188 -0.60937,1.078125 -1.20703,2.460937 -1.79297,4.148437 -0.5625,1.664063 -1.10156,3.503906 -1.61719,5.519531 -0.49219,2.015625 -0.94922,3.972657 -1.37109,5.871094 l 1.05469,0.140625 c 0.35156,0.02344 0.71484,0.0586 1.08984,0.105469 0.70313,-1.195313 1.42969,-2.484375 2.17969,-3.867188 0.77344,-1.40625 1.46485,-2.777344 2.07422,-4.113281 0.60937,-1.359375 1.11328,-2.625 1.51172,-3.796875 0.39843,-1.171875 0.59765,-2.132812 0.59765,-2.882812 z"/>
    </g>
  </g>
</svg>