<?xml version="1.0" encoding="UTF-8"?><svg id="Ebene_1" xmlns="http://www.w3.org/2000/svg" viewBox="0 0 16 16"><defs><style>.cls-1{fill:#bababa;stroke-width:0px;}</style></defs><path class="cls-1" d="M9.21,5.91c-.35-.21-.77-.32-1.21-.32-1.34,0-2.42,1.08-2.42,2.42s1.08,2.42,2.42,2.42c.41,0,.8-.1,1.15-.3.76-.41,1.27-1.21,1.27-2.13s-.49-1.68-1.21-2.1ZM4.84,2.96V.65C2,1.88,0,4.71,0,8c0,2.34,1.01,4.44,2.62,5.9l1.89-1.09c-1.48-1.08-2.46-2.83-2.46-4.81,0-2.13,1.11-3.99,2.79-5.04ZM4.84,8V3.87c-1.25.94-2.05,2.44-2.05,4.13,0,1.85.97,3.48,2.44,4.4l2.24-1.29c-1.48-.25-2.62-1.55-2.62-3.11ZM9.21,5.91c-.35-.21-.77-.32-1.21-.32-1.34,0-2.42,1.08-2.42,2.42s1.08,2.42,2.42,2.42c.41,0,.8-.1,1.15-.3.76-.41,1.27-1.21,1.27-2.13s-.49-1.68-1.21-2.1ZM10.97,6.92c.13.34.19.7.19,1.08,0,1.17-.63,2.18-1.58,2.73l-.1.05-3.5,2.02c.62.26,1.3.41,2.01.41,2.8,0,5.1-2.23,5.2-5l-2.23-1.29ZM8,0C7.16,0,6.34.14,5.58.38v2.18c.74-.32,1.56-.51,2.42-.51,3.2,0,5.83,2.55,5.94,5.73l2,1.16c.04-.31.06-.62.06-.94C16,3.59,12.41,0,8,0ZM8,13.95c-1,0-1.95-.25-2.78-.7l-1.99,1.15c1.33,1,2.99,1.59,4.77,1.59,3.82,0,7.03-2.69,7.82-6.27l-1.9-1.1c-.32,2.99-2.85,5.33-5.92,5.33ZM8,2.79c-.87,0-1.7.21-2.42.6v2.59c.58-.69,1.45-1.14,2.42-1.14.58,0,1.11.15,1.58.43h0s3.58,2.06,3.58,2.06c-.32-2.56-2.52-4.54-5.16-4.54ZM9.21,5.91c-.35-.21-.77-.32-1.21-.32-1.34,0-2.42,1.08-2.42,2.42s1.08,2.42,2.42,2.42c.41,0,.8-.1,1.15-.3.76-.41,1.27-1.21,1.27-2.13s-.49-1.68-1.21-2.1Z"/></svg>