<?xml version="1.0" encoding="UTF-8" standalone="no"?>
<svg
   fill="none"
   viewBox="0 0 61 85"
   role="img"
   version="1.1"
   id="svg10"
   sodipodi:docname="jca.svg"
   inkscape:version="1.1.2 (0a00cf5339, 2022-02-04)"
   xmlns:inkscape="http://www.inkscape.org/namespaces/inkscape"
   xmlns:sodipodi="http://sodipodi.sourceforge.net/DTD/sodipodi-0.dtd"
   xmlns="http://www.w3.org/2000/svg"
   xmlns:svg="http://www.w3.org/2000/svg"
   xmlns:rdf="http://www.w3.org/1999/02/22-rdf-syntax-ns#"
   xmlns:cc="http://creativecommons.org/ns#"
   xmlns:dc="http://purl.org/dc/elements/1.1/">
  <defs
     id="defs14" />
  <sodipodi:namedview
     id="namedview12"
     pagecolor="#ffffff"
     bordercolor="#cccccc"
     borderopacity="1"
     inkscape:pageshadow="0"
     inkscape:pageopacity="1"
     inkscape:pagecheckerboard="0"
     showgrid="false"
     inkscape:zoom="10.094118"
     inkscape:cx="30.463287"
     inkscape:cy="42.5"
     inkscape:window-width="1920"
     inkscape:window-height="1048"
     inkscape:window-x="0"
     inkscape:window-y="0"
     inkscape:window-maximized="1"
     inkscape:current-layer="svg10" />
  <title
     id="title2">Jeunes chercheurs associés</title>
  <path
     fill="#E45D0F"
     d="M3.921 0a3.433 3.433 0 00-3.43 3.436 3.433 3.433 0 003.43 3.436 3.433 3.433 0 003.43-3.436A3.433 3.433 0 003.922 0zM17.138 0a3.433 3.433 0 00-3.431 3.436 3.433 3.433 0 003.43 3.436 3.433 3.433 0 003.431-3.436A3.433 3.433 0 0017.139 0zM30.355 0a3.433 3.433 0 00-3.431 3.436 3.433 3.433 0 003.43 3.436 3.433 3.433 0 003.431-3.436A3.433 3.433 0 0030.355 0zM43.573 0a3.433 3.433 0 00-3.43 3.436 3.433 3.433 0 003.43 3.436 3.433 3.433 0 003.431-3.436A3.433 3.433 0 0043.574 0zM56.79 0a3.433 3.433 0 00-3.43 3.436 3.433 3.433 0 003.43 3.436 3.433 3.433 0 003.43-3.436A3.433 3.433 0 0056.79 0z"
     id="path4"
     style="fill:#000000" />
  <path
     fill="#424242"
     d="M0 52.927l.011.168c.158 3.858 1.46 13.784 10.125 22.617 5.318 5.42 12.442 8.437 20.062 8.493 7.56.03 14.647-2.819 19.976-8.091 8.345-8.26 10.15-17.494 10.484-22.264l.043-.44V29.036a2.97 2.97 0 00-2.965-2.97 2.97 2.97 0 00-2.965 2.97v24.27c-.133 7.461-3.251 14.03-9.269 19.53-8.67 7.924-21.738 7.883-30.399-.092-6.086-5.606-9.172-12.308-9.172-19.92V18.248h34.26c.41 0 .745.335.745.746v6.293a.746.746 0 01-.745.746H16.61a2.908 2.908 0 00-2.902 2.906v24.634c.003.082.53 10.142 9.199 15.525 5.719 3.55 13.32 2.597 18.069-2.269 6.028-6.173 6.03-13.6 6.029-13.675v-34.16c0-.411.334-.746.744-.746h9.995a2.964 2.964 0 000-5.926H1.785C.8 12.322 0 13.124 0 14.11v38.818zm40.793.222c0 3.923-1.422 7.328-4.227 10.121a8.977 8.977 0 01-6.354 2.617 8.975 8.975 0 01-6.353-2.617c-2.805-2.792-4.228-6.198-4.228-10.121v-6.634c0-.411.335-.746.745-.746h12.801v-2.414a3.513 3.513 0 00-3.506-3.511h-9.295a.746.746 0 01-.745-.745v-6.396c0-.411.335-.746.745-.746h16.981a3.443 3.443 0 013.436 3.442v17.75z"
     id="path6"
     style="fill:#000000" />
  <path
     fill="#E45D0F"
     d="M26.92 60.433V39.848h4.21a2.654 2.654 0 012.652 2.657v17.928l-3.431-2.611-3.431 2.61z"
     id="path8"
     style="fill:#000000" />
  <metadata
     id="metadata831">
    <rdf:RDF>
      <cc:Work
         rdf:about="">
        <dc:title>Jeunes chercheurs associés</dc:title>
      </cc:Work>
    </rdf:RDF>
  </metadata>
</svg>
