<svg version="1.2" xmlns="http://www.w3.org/2000/svg" viewBox="0 0 1901 401" width="1901" height="401">
	<style>
		.s0 { fill: #ffffff } 
	</style>
	<g id="letters">
		<g>
			<g>
				<g>
					<path fill-rule="evenodd" class="s0" d="m166.3 174v-168.7c-89.6 6.3-161 78.7-165.8 168.7z"/>
					<path fill-rule="evenodd" class="s0" d="m188.7 174h169c-4.8-91.1-77.8-164.2-169-169z"/>
					<path fill-rule="evenodd" class="s0" d="m166.3 196.5h-165.5c6.3 88.6 77 159.3 165.5 165.5z"/>
					<path fill-rule="evenodd" class="s0" d="m188.7 196.5v165.8c90.1-4.8 162.4-76.2 168.7-165.8z"/>
				</g>
				<path class="s0" d="m1843.4 68.7c1.6 3.6 3.7 6.7 6.4 9.4 2.7 2.7 5.8 4.8 9.4 6.4 3.6 1.6 7.4 2.4 11.5 2.4 4.1 0 7.9-0.8 11.5-2.4 3.6-1.6 6.7-3.7 9.4-6.4 2.7-2.7 4.8-5.8 6.4-9.4 1.6-3.6 2.4-7.4 2.4-11.5 0-4.1-0.8-7.9-2.4-11.5-1.6-3.6-3.7-6.7-6.4-9.4-2.7-2.7-5.8-4.8-9.4-6.4-3.6-1.6-7.4-2.4-11.5-2.4-4.1 0-7.9 0.8-11.5 2.4-3.6 1.6-6.7 3.7-9.4 6.4-2.7 2.7-4.8 5.8-6.4 9.4-1.6 3.6-2.4 7.4-2.4 11.5 0.1 4 0.8 7.9 2.4 11.5zm4.8-21.1c1.3-3 3-5.6 5.2-7.8 2.2-2.2 4.8-4 7.8-5.2 3-1.3 6.1-1.9 9.5-1.9 3.4 0 6.5 0.6 9.5 1.9 3 1.3 5.6 3 7.8 5.2 2.2 2.2 4 4.8 5.2 7.8 1.3 3 1.9 6.1 1.9 9.5 0 3.4-0.6 6.5-1.9 9.5-1.3 3-3 5.6-5.2 7.8-2.2 2.2-4.8 4-7.8 5.2-3 1.3-6.1 1.9-9.5 1.9-3.4 0-6.5-0.6-9.5-1.9-3-1.3-5.6-3-7.8-5.2-2.2-2.2-4-4.8-5.2-7.8-1.3-3-1.9-6.1-1.9-9.5 0-3.4 0.7-6.5 1.9-9.5zm11.1 26.3h6.2v-13.9h4.6l8.5 13.9h6.5l-8.8-14.4c2.3-0.3 4.2-1.1 5.8-2.6 1.5-1.5 2.3-3.7 2.3-6.7 0-3.3-1-5.8-2.9-7.6-1.9-1.8-5-2.6-9.1-2.6h-13.1zm6.3-28.7h4.6c1 0 1.9 0 2.9 0.1 1 0.1 1.8 0.2 2.6 0.6 0.8 0.3 1.4 0.8 1.9 1.4 0.5 0.6 0.7 1.5 0.7 2.6 0 1.1-0.2 2-0.7 2.6-0.5 0.6-1.1 1.1-1.9 1.4-0.8 0.3-1.6 0.5-2.6 0.6-1 0.1-1.9 0.1-2.9 0.1h-4.6z"/>
				<path class="s0" d="m672.9 79.6v41.9c-18.4-32.2-51.1-53.1-94-53.1-68 0-115.5 51.6-115.5 121.6 0 70.5 47.5 121.1 115.5 121.1 42.9 0 75.6-20.4 94-52.6v134.9c0 4.6 3.1 7.7 7.7 7.7h12.8c4.6 0 7.7-3.1 7.7-7.7v-313.8c0-4.6-3.1-7.7-7.7-7.7h-12.8c-4.7 0-7.7 3.1-7.7 7.7zm-91 204.4c-54.7 0-91.5-38.8-91.5-94 0-55.2 36.8-95 91.5-95 55.2 0 90.9 39.9 90.9 95 0 55.1-35.7 94-90.9 94z"/>
				<path class="s0" d="m940.7 79.6v134.4c0 46.5-31.7 72.5-72.5 72.5-40.4 0-72.5-26.1-72.5-72.5v-134.4c0-4.6-3.1-7.7-7.7-7.7h-12.8c-4.6 0-7.7 3.1-7.7 7.7v137.9c0 64.4 46 93.5 94.5 93.5 31.2 0 61.3-12.3 78.7-38.8v27.1c0 4.6 3.1 7.7 7.7 7.7h12.8c4.6 0 7.7-3.1 7.7-7.7v-219.8c0-4.6-3.1-7.7-7.7-7.7h-12.8c-4.6 0.1-7.7 3.2-7.7 7.8z"/>
				<path class="s0" d="m1238.6 79.6v41.4c-18.4-32.2-51.1-52.6-94-52.6-68 0-115.5 50.6-115.5 121.1 0 70 47.5 121.6 115.5 121.6 42.9 0 75.6-20.9 94-53.1v41.4c0 4.6 3.1 7.7 7.7 7.7h12.8c4.6 0 7.7-3.1 7.7-7.7v-219.8c0-4.6-3.1-7.7-7.7-7.7h-12.8c-4.6 0-7.7 3.1-7.7 7.7zm-91 204.4c-54.7 0-91.5-39.3-91.5-94.5 0-55.2 36.8-94.5 91.5-94.5 55.2 0 90.9 39.3 90.9 94.5 0 55.2-35.6 94.5-90.9 94.5z"/>
				<path class="s0" d="m1361.2 115.3v-35.8c0-4.6-3.1-7.7-7.7-7.7h-12.8c-4.6 0-7.7 3.1-7.7 7.7v219.8c0 4.6 3.1 7.7 7.7 7.7h12.8c4.6 0 7.7-3.1 7.7-7.7v-125.3c0-51.1 36.8-75.1 75.6-78.7 4.6-0.5 7.2-3.6 7.2-8.2v-11.2c0-5.1-2.6-7.7-7.7-7.2-31.1 2.7-59.2 18-75.1 46.6z"/>
				<path class="s0" d="m1600.4 86.7v-7.2c0-4.6-3.1-7.7-7.7-7.7h-51.1v-63.9c0-4.6-3.1-7.7-7.7-7.7h-12.9c-4.6 0-7.7 3.1-7.7 7.7v63.9h-26.1c-4.6 0-7.7 3.1-7.7 7.7v7.2c0 4.6 3.1 7.7 7.7 7.7h26.1v160.4c0 33.2 20.4 52.1 52.6 52.1h24c4.6 0 7.7-3.1 7.7-7.7v-8.2c0-4.6-3.1-7.7-7.7-7.7h-15.3c-17.9 0-33.2-8.2-33.2-32.2v-156.9h51.1c4.9 0.2 7.9-2.9 7.9-7.5z"/>
				<path class="s0" d="m1752.7 311.6c70.5 0 118.5-52.1 118.5-122.1 0-70.5-48-121.6-118.5-121.6-70.5 0-119 51.1-119 121.6 0 70 48.5 122.1 119 122.1zm0-27.6c-54.2 0-90.9-40.4-90.9-94.5 0-54.2 36.8-94.5 90.9-94.5 54.2 0 89.9 40.4 89.9 94.5 0 54.2-35.7 94.5-89.9 94.5z"/>
			</g>
		</g>
	</g>
</svg>